<svg width="70" height="70" viewBox="0 0 70 70" fill="none" xmlns="http://www.w3.org/2000/svg">
<path d="M16 0.5H54C57.7854 0.5 60.5745 0.500713 62.7119 0.788086C64.8348 1.07354 66.2406 1.63315 67.3037 2.69629C68.3668 3.75943 68.9265 5.16519 69.2119 7.28809C69.4993 9.42554 69.5 12.2146 69.5 16V54C69.5 57.7854 69.4993 60.5745 69.2119 62.7119C68.9265 64.8348 68.3668 66.2406 67.3037 67.3037C66.2406 68.3668 64.8348 68.9265 62.7119 69.2119C60.5745 69.4993 57.7854 69.5 54 69.5H16C12.2146 69.5 9.42554 69.4993 7.28809 69.2119C5.16519 68.9265 3.75943 68.3668 2.69629 67.3037C1.63315 66.2406 1.07354 64.8348 0.788086 62.7119C0.500713 60.5745 0.5 57.7854 0.5 54V16C0.5 12.2146 0.500713 9.42554 0.788086 7.28809C1.07354 5.16519 1.63315 3.75943 2.69629 2.69629C3.75943 1.63315 5.16519 1.07354 7.28809 0.788086C9.42554 0.500713 12.2146 0.5 16 0.5Z" fill="#2C2C2C" stroke="#2C2C2C"/>
<path d="M57.8337 22.2891V55.4912C57.8335 55.9968 57.4234 56.4071 56.9177 56.4072H13.0828C12.577 56.4072 12.1669 55.9969 12.1667 55.4912V22.3613L46.282 19.1719L57.8337 22.2891Z" fill="#DDDDDD" stroke="#2C2C2C"/>
<path d="M57.8337 22.1104V55.4922C57.8337 55.998 57.4235 56.4081 56.9177 56.4082H13.0828C12.5896 56.4082 12.1886 56.0186 12.1687 55.5303H47.4109C51.6448 55.5303 55.0769 52.0981 55.0769 47.8643V19.2568L57.8337 22.1104Z" fill="#F3F3F3" stroke="#2C2C2C"/>
<path d="M50.5557 18.4844C50.6569 18.4846 50.7393 18.5666 50.7393 18.668V56.4082H50.3721V18.668C50.3721 18.5665 50.4542 18.4844 50.5557 18.4844ZM42.7773 18.4844C42.8788 18.4844 42.9609 18.5665 42.9609 18.668V56.4082H42.5938V18.668C42.5938 18.5667 42.6761 18.4846 42.7773 18.4844ZM35.1836 56.4082H34.8164V19.4766L35.1836 19.4297V56.4082ZM27.4062 56.4082H27.0391V20.4629L27.4062 20.416V56.4082ZM19.6289 56.4082H19.2617V21.4492L19.6289 21.4023V56.4082Z" fill="#F3F3F3" stroke="#2C2C2C"/>
<path d="M50.7393 56.4072H50.3721V54.9336C50.4959 54.8817 50.6184 54.8269 50.7393 54.7686V56.4072ZM42.9609 55.5283V56.4062H42.5938V55.5283H42.9609ZM35.1836 55.5283V56.4062H34.8164V55.5283H35.1836ZM27.4062 55.5283V56.4062H27.0391V55.5283H27.4062ZM19.6289 55.5283V56.4062H19.2617V55.5283H19.6289Z" fill="#F3F3F3" stroke="#2C2C2C"/>
<path d="M13.0828 15.9258H56.9177C57.4235 15.9259 57.8337 16.336 57.8337 16.8418V21.4072H12.1667V16.8418C12.1667 16.3359 12.5769 15.9258 13.0828 15.9258Z" fill="#FD5001" stroke="#2C2C2C"/>
<path d="M22.8333 26.2969V29.1855H14.76V26.2969H22.8333Z" fill="#9B1FF1" stroke="#2C2C2C"/>
<path d="M30.6111 32.7773V35.666H19.9451V32.7773H30.6111Z" fill="#006D34" stroke="#2C2C2C"/>
<path d="M46.1663 37.9629V40.8516H31.6116V37.9629H46.1663Z" fill="#055DF3" stroke="#2C2C2C"/>
<path d="M38.3889 41.8516V44.7402H31.6116V41.8516H38.3889Z" fill="#8FD4F5" stroke="#2C2C2C"/>
<path d="M53.9431 45.7402V48.6289H45.8699V45.7402H53.9431Z" fill="#FFBE02" stroke="#2C2C2C"/>
<path d="M53.9438 49.6289V52.5176H48.4624V49.6289H53.9438Z" fill="#FD5001" stroke="#2C2C2C"/>
<path d="M53.9438 52.5176H53.5034C53.661 52.3116 53.8074 52.0967 53.9438 51.875V52.5176Z" fill="#FD5001" stroke="#2C2C2C"/>
<path d="M53.9441 13.334V17.5195H52.3513V13.334H53.9441ZM44.8699 13.334V17.5195H43.2781V13.334H44.8699ZM35.7966 13.334V17.5195H34.2039V13.334H35.7966ZM26.7224 13.334V17.5195H25.1296V13.334H26.7224ZM17.6482 13.334V17.5195H16.0554V13.334H17.6482Z" fill="#F3F3F3" stroke="#2C2C2C"/>
</svg>
