<svg width="70" height="70" viewBox="0 0 70 70" fill="none" xmlns="http://www.w3.org/2000/svg">
<path d="M16 0.5H54C57.7854 0.5 60.5745 0.500713 62.7119 0.788086C64.8348 1.07354 66.2406 1.63315 67.3037 2.69629C68.3668 3.75943 68.9265 5.16519 69.2119 7.28809C69.4993 9.42554 69.5 12.2146 69.5 16V54C69.5 57.7854 69.4993 60.5745 69.2119 62.7119C68.9265 64.8348 68.3668 66.2406 67.3037 67.3037C66.2406 68.3668 64.8348 68.9265 62.7119 69.2119C60.5745 69.4993 57.7854 69.5 54 69.5H16C12.2146 69.5 9.42554 69.4993 7.28809 69.2119C5.16519 68.9265 3.75943 68.3668 2.69629 67.3037C1.63315 66.2406 1.07354 64.8348 0.788086 62.7119C0.500713 60.5745 0.5 57.7854 0.5 54V16C0.5 12.2146 0.500713 9.42554 0.788086 7.28809C1.07354 5.16519 1.63315 3.75943 2.69629 2.69629C3.75943 1.63315 5.16519 1.07354 7.28809 0.788086C9.42554 0.500713 12.2146 0.5 16 0.5Z" fill="#2C2C2C" stroke="#2C2C2C"/>
<g clip-path="url(#clip0_272_465)">
<path d="M42.9475 20.7847C37.7392 20.0916 32.3884 21.6003 28.4556 25.1852C21.9034 31.1586 21.7481 40.8063 27.8815 46.9553C27.7117 47.0065 27.5302 47.0235 27.3469 47.0029C25.5295 46.7944 23.7749 46.329 22.121 45.6166L14.1406 49.6748C13.0713 50.2169 11.8847 49.1964 12.2459 48.0648L14.8701 39.8253C10.424 33.5874 11.1058 25.0424 17.1763 19.4783C24.3974 12.8578 36.0235 13.3618 42.6204 20.2142C42.7753 20.3741 42.8877 20.5702 42.9475 20.7847Z" fill="#FFBE02"/>
<path d="M42.9476 20.7848C38.196 20.1532 33.3259 21.3535 29.5212 24.2914V14.7832C34.3644 14.7904 39.1771 16.6376 42.6206 20.2143C42.7755 20.3742 42.8878 20.5703 42.9476 20.7848Z" fill="#FFBE02"/>
<path d="M55.1324 45.217C57.0111 42.5812 58 39.5292 58 36.3457C58 27.2621 49.9961 20.1738 40.4814 20.1738C30.9634 20.1738 22.9629 27.2655 22.9629 36.3457C22.9629 45.4293 30.9668 52.5176 40.4814 52.5176C43.0344 52.5176 45.5782 51.9973 47.881 51.0084L55.862 55.0665C56.0511 55.1628 56.2603 55.2129 56.4725 55.2129C57.3819 55.2129 58.0339 54.3266 57.7568 53.4562L55.1324 45.217Z" fill="#00B8F0"/>
<path d="M57.7565 53.4564C58.118 54.5899 56.9304 55.6081 55.8618 55.0664L47.8805 51.0082C45.5936 51.9906 43.0819 52.5176 40.3916 52.5176V20.1738C50.2773 20.1738 58 27.4857 58 36.3457C58 39.5289 57.0109 42.5809 55.1324 45.2169L57.7565 53.4564Z" fill="#055DF3"/>
<path d="M35.0012 37.6934C35.7455 37.6934 36.3489 37.09 36.3489 36.3457C36.3489 35.6014 35.7455 34.998 35.0012 34.998C34.2569 34.998 33.6536 35.6014 33.6536 36.3457C33.6536 37.09 34.2569 37.6934 35.0012 37.6934Z" fill="#2C2C2C"/>
<path d="M40.3916 37.6934C41.1359 37.6934 41.7393 37.09 41.7393 36.3457C41.7393 35.6014 41.1359 34.998 40.3916 34.998C39.6473 34.998 39.0439 35.6014 39.0439 36.3457C39.0439 37.09 39.6473 37.6934 40.3916 37.6934Z" fill="#2C2C2C"/>
<path d="M41.7392 36.3457C41.7392 37.0896 41.1354 37.6934 40.3916 37.6934V34.998C41.1355 34.998 41.7392 35.6018 41.7392 36.3457Z" fill="#2C2C2C"/>
<path d="M45.782 37.6934C46.5263 37.6934 47.1296 37.09 47.1296 36.3457C47.1296 35.6014 46.5263 34.998 45.782 34.998C45.0377 34.998 44.4343 35.6014 44.4343 36.3457C44.4343 37.09 45.0377 37.6934 45.782 37.6934Z" fill="#2C2C2C"/>
</g>
<rect x="12.5" y="12.5" width="45" height="45" stroke="#2C2C2C"/>
<defs>
<clipPath id="clip0_272_465">
<rect x="12" y="12" width="46" height="46" fill="white"/>
</clipPath>
</defs>
</svg>
