<svg width="70" height="70" viewBox="0 0 70 70" fill="none" xmlns="http://www.w3.org/2000/svg">
<path d="M16 0.5H54C57.7854 0.5 60.5745 0.500713 62.7119 0.788086C64.8348 1.07354 66.2406 1.63315 67.3037 2.69629C68.3668 3.75943 68.9265 5.16519 69.2119 7.28809C69.4993 9.42554 69.5 12.2146 69.5 16V54C69.5 57.7854 69.4993 60.5745 69.2119 62.7119C68.9265 64.8348 68.3668 66.2406 67.3037 67.3037C66.2406 68.3668 64.8348 68.9265 62.7119 69.2119C60.5745 69.4993 57.7854 69.5 54 69.5H16C12.2146 69.5 9.42554 69.4993 7.28809 69.2119C5.16519 68.9265 3.75943 68.3668 2.69629 67.3037C1.63315 66.2406 1.07354 64.8348 0.788086 62.7119C0.500713 60.5745 0.5 57.7854 0.5 54V16C0.5 12.2146 0.500713 9.42554 0.788086 7.28809C1.07354 5.16519 1.63315 3.75943 2.69629 2.69629C3.75943 1.63315 5.16519 1.07354 7.28809 0.788086C9.42554 0.500713 12.2146 0.5 16 0.5Z" fill="#2C2C2C" stroke="#2C2C2C"/>
<path d="M35.0986 12.2168C47.6544 12.2168 57.833 22.3954 57.833 34.9512C57.833 47.507 47.6545 57.6855 35.0986 57.6855C22.5427 57.6855 12.3643 47.507 12.3643 34.9512C12.3643 22.3954 22.5428 12.2168 35.0986 12.2168ZM44.5439 29.4404L44.2939 29.2969L35.25 24.0742L35 23.9307L34.75 24.0742L25.7061 29.2959L25.4561 29.4404V40.4619L25.7061 40.6064L34.749 45.8281L34.8652 45.8945H35.1338L35.25 45.8281L44.2939 40.6064L44.5439 40.4619V29.4404Z" fill="#F20066" stroke="#2C2C2C"/>
<path d="M43.5439 56.1279C40.9055 57.1943 38.0225 57.7831 35.001 57.7832C30.085 57.7832 25.533 56.2293 21.8076 53.5859L35.1328 45.8936H35.1348L35.251 45.8262L43.5439 41.0371V56.1279Z" fill="#006D34" stroke="#2C2C2C"/>
<path d="M44.5444 29.4404L44.2944 29.2969L35.5005 24.2178V12.2217C47.871 12.436 57.8335 22.5295 57.8335 34.9512C57.8335 47.3729 47.871 57.4654 35.5005 57.6797V45.6836L44.2944 40.6064L44.5444 40.4619V29.4404Z" fill="#FE1300" stroke="#2C2C2C"/>
<path d="M25.4563 39.4531L12.3899 31.9092C13.4821 24.0899 18.5331 17.5367 25.4563 14.3477V39.4531Z" fill="#055DF3" stroke="#2C2C2C"/>
<path d="M25.7058 40.6064L33.9988 45.3945L20.9353 52.9355C15.5967 48.7568 12.1667 42.2548 12.1667 34.9512C12.1668 34.2405 12.2001 33.5377 12.2634 32.8438L25.7058 40.6064Z" fill="#9B1FF1" stroke="#2C2C2C"/>
<path d="M57.6096 38.1367C56.5175 45.9565 51.4668 52.508 44.5442 55.6973V30.5938L57.6096 38.1367Z" fill="#FFBE02" stroke="#2C2C2C"/>
<path d="M49.063 16.9648C54.4023 21.1436 57.8335 27.6459 57.8335 34.9512C57.8335 35.6602 57.799 36.3619 57.7358 37.0547L44.2944 29.2959L36.0005 24.5068L49.063 16.9648Z" fill="#FD5001" stroke="#2C2C2C"/>
<path d="M43.5444 56.0605C41.0509 57.0592 38.3402 57.6295 35.5005 57.6787V45.6826L43.5444 41.0371V56.0605Z" fill="#8FD4F5" stroke="#2C2C2C"/>
</svg>
