<svg width="70" height="70" viewBox="0 0 70 70" fill="none" xmlns="http://www.w3.org/2000/svg">
<path d="M16 0.5H54C57.7854 0.5 60.5745 0.500713 62.7119 0.788086C64.8348 1.07354 66.2406 1.63315 67.3037 2.69629C68.3668 3.75943 68.9265 5.16519 69.2119 7.28809C69.4993 9.42554 69.5 12.2146 69.5 16V54C69.5 57.7854 69.4993 60.5745 69.2119 62.7119C68.9265 64.8348 68.3668 66.2406 67.3037 67.3037C66.2406 68.3668 64.8348 68.9265 62.7119 69.2119C60.5745 69.4993 57.7854 69.5 54 69.5H16C12.2146 69.5 9.42554 69.4993 7.28809 69.2119C5.16519 68.9265 3.75943 68.3668 2.69629 67.3037C1.63315 66.2406 1.07354 64.8348 0.788086 62.7119C0.500713 60.5745 0.5 57.7854 0.5 54V16C0.5 12.2146 0.500713 9.42554 0.788086 7.28809C1.07354 5.16519 1.63315 3.75943 2.69629 2.69629C3.75943 1.63315 5.16519 1.07354 7.28809 0.788086C9.42554 0.500713 12.2146 0.5 16 0.5Z" fill="#2C2C2C" stroke="#2C2C2C"/>
<path d="M43.9763 32.7168C47.3796 35.0042 51.4578 35.9012 55.4958 35.2617L55.8865 35.1943L57.8093 34.8418L56.9158 36.5801C53.9275 42.3872 49.5295 47.4053 44.1746 51.126L43.6531 51.4824L35.3689 57.0479L12.9539 41.9912L35.3689 26.9336L43.9763 32.7168Z" fill="#055DF3" stroke="#2C2C2C" stroke-width="1.0032"/>
<path d="M43.9763 25.4023C47.3796 27.6898 51.4578 28.5867 55.4958 27.9473L55.8865 27.8799L57.8093 27.5273L56.9158 29.2656C53.9275 35.0728 49.5295 40.0909 44.1746 43.8115L43.6531 44.168L35.3689 49.7334L12.9539 34.6768L35.3689 19.6191L43.9763 25.4023Z" fill="#FFBE02" stroke="#2C2C2C" stroke-width="1.0032"/>
<path d="M43.9763 18.0879C47.3796 20.3753 51.4578 21.2723 55.4958 20.6328L55.8865 20.5654L57.8093 20.2129L56.9158 21.9512C53.9275 27.7583 49.5295 32.7764 44.1746 36.4971L43.6531 36.8535L35.3689 42.4189L12.9539 27.3623L35.3689 12.3047L43.9763 18.0879Z" fill="#FE1300" stroke="#2C2C2C" stroke-width="1.0032"/>
<path d="M36.3311 33.5068V35.4297H34.4082V33.5068H36.3311ZM42.1836 29.1172V31.04H40.2607V29.1172H42.1836ZM31.9424 29.1172V31.04H30.0195V29.1172H31.9424ZM37.7939 26.1914V28.1143H35.8721V26.1914H37.7939ZM26.0908 26.1914V28.1143H24.168V26.1914H26.0908ZM42.1836 23.2656V25.1885H40.2607V23.2656H42.1836ZM31.9424 23.2656V25.1885H30.0195V23.2656H31.9424ZM36.3311 20.3398V22.2627H34.4082V20.3398H36.3311Z" fill="#FD5001" stroke="#2C2C2C" stroke-width="1.0032"/>
<path d="M50.9617 23.2676V25.1904H49.0388V23.2676H50.9617Z" fill="#2C2C2C" stroke="#2C2C2C" stroke-width="1.0032"/>
</svg>
