<svg width="70" height="70" viewBox="0 0 70 70" fill="none" xmlns="http://www.w3.org/2000/svg">
<path d="M16 0.5H54C57.7854 0.5 60.5745 0.500713 62.7119 0.788086C64.8348 1.07354 66.2406 1.63315 67.3037 2.69629C68.3668 3.75943 68.9265 5.16519 69.2119 7.28809C69.4993 9.42554 69.5 12.2146 69.5 16V54C69.5 57.7854 69.4993 60.5745 69.2119 62.7119C68.9265 64.8348 68.3668 66.2406 67.3037 67.3037C66.2406 68.3668 64.8348 68.9265 62.7119 69.2119C60.5745 69.4993 57.7854 69.5 54 69.5H16C12.2146 69.5 9.42554 69.4993 7.28809 69.2119C5.16519 68.9265 3.75943 68.3668 2.69629 67.3037C1.63315 66.2406 1.07354 64.8348 0.788086 62.7119C0.500713 60.5745 0.5 57.7854 0.5 54V16C0.5 12.2146 0.500713 9.42554 0.788086 7.28809C1.07354 5.16519 1.63315 3.75943 2.69629 2.69629C3.75943 1.63315 5.16519 1.07354 7.28809 0.788086C9.42554 0.500713 12.2146 0.5 16 0.5Z" fill="#2C2C2C" stroke="#2C2C2C"/>
<path d="M46.3821 27.4746H48.594C49.083 27.4746 49.4826 27.8732 49.4827 28.3623V30.5938H49.1155V28.3623C49.1154 28.0763 48.8828 27.8418 48.594 27.8418H46.3821C46.2806 27.8418 46.1985 27.7596 46.1985 27.6582C46.1985 27.5568 46.2806 27.4746 46.3821 27.4746ZM43.4651 27.4746C43.5665 27.4746 43.6487 27.5568 43.6487 27.6582C43.6487 27.7596 43.5665 27.8418 43.4651 27.8418H41.3333V27.4746H43.4651Z" fill="#FE1300" stroke="#2C2C2C"/>
<path d="M13.8528 12.9434H55.9602C56.4617 12.9435 56.8683 13.35 56.8684 13.8516V45.5146L34.0374 46.9414L12.9446 45.5176V13.8516C12.9447 13.3501 13.3512 12.9435 13.8528 12.9434Z" fill="#FFBE02" stroke="#2C2C2C"/>
<path d="M18.9819 16.6348H31.8726C32.3615 16.6349 32.7602 17.0335 32.7603 17.5225V26.8428H44.2437C44.3447 26.843 44.427 26.9253 44.4272 27.0264C44.4272 27.1276 44.3449 27.2097 44.2437 27.21H40.0522V34.1348H41.3267C41.428 34.1348 41.5102 34.217 41.5103 34.3184C41.5103 34.4197 41.428 34.5019 41.3267 34.502H40.0522V35.7764C40.0522 35.8776 39.9699 35.9597 39.8687 35.96C39.7672 35.96 39.6851 35.8778 39.6851 35.7764V27.21H32.6528L29.8433 30.0195V34.3184C29.8433 34.4198 29.7611 34.502 29.6597 34.502C29.5583 34.5019 29.4761 34.4197 29.4761 34.3184V30.127H25.2847C25.1833 30.1269 25.1011 30.0447 25.1011 29.9434C25.1011 29.842 25.1834 29.7599 25.2847 29.7598H26.5601V24.1104C26.5601 24.0089 26.6422 23.9268 26.7437 23.9268C26.8449 23.927 26.9272 24.0091 26.9272 24.1104V29.7598H29.5835L32.2466 27.0967L32.3931 26.9512V17.5225C32.393 17.2365 32.1613 17.0021 31.8726 17.002H26.9272V21.1934C26.9272 21.2946 26.8449 21.3767 26.7437 21.377C26.6422 21.377 26.5601 21.2948 26.5601 21.1934V17.002H18.9819C18.6945 17.0021 18.4615 17.2351 18.4614 17.5225V29.7598H22.3687C22.4698 29.76 22.5522 29.8421 22.5522 29.9434C22.5522 30.0446 22.4699 30.1267 22.3687 30.127H18.4614V40.1523C18.4617 40.4146 18.566 40.6661 18.7515 40.8516C18.9369 41.037 19.1884 41.1412 19.4507 41.1416H29.4761V37.2354C29.4761 37.134 29.5583 37.0519 29.6597 37.0518C29.7611 37.0518 29.8433 37.1339 29.8433 37.2354V41.1416H39.6851V38.6934C39.6851 38.592 39.7673 38.5098 39.8687 38.5098C39.9698 38.51 40.0522 38.5921 40.0522 38.6934V41.1416H49.3745C49.5122 41.141 49.6446 41.0859 49.7417 40.9883C49.8385 40.8909 49.8931 40.7588 49.8931 40.6211V34.502H44.2437C44.1422 34.502 44.0601 34.4198 44.0601 34.3184C44.0601 34.2169 44.1422 34.1348 44.2437 34.1348H49.8931V27.7314C49.8931 27.4454 49.6613 27.2101 49.3726 27.21H47.1597C47.0583 27.2099 46.9761 27.1277 46.9761 27.0264C46.9763 26.9251 47.0584 26.8429 47.1597 26.8428H49.3726C49.8615 26.8429 50.2603 27.2424 50.2603 27.7314V40.6211C50.2603 41.1102 49.8615 41.5087 49.3726 41.5088H19.4517C18.7037 41.5088 18.0942 40.8993 18.0942 40.1514V17.5225C18.0943 17.0335 18.493 16.6349 18.9819 16.6348Z" fill="#FD5001" stroke="#2C2C2C"/>
<path d="M56.8684 46.4844V50.1514L55.2024 51.8174L56.8684 53.4834V56.2422C56.8684 56.7439 56.4617 57.1512 55.9602 57.1514H13.8528C13.3511 57.1512 12.9446 56.7439 12.9446 56.2422V53.4824L14.6096 51.8174L12.9446 50.1523V46.4844H56.8684Z" fill="#055DF3" stroke="#2C2C2C"/>
<path d="M56.8684 46.4844V50.1523L55.2034 51.8174L56.8684 53.4824V56.2422C56.8684 56.7438 56.4618 57.1512 55.9602 57.1514H13.8528C13.3615 57.1512 12.9628 56.7608 12.9465 56.2734H46.0715C50.5123 56.2734 54.1125 52.6732 54.1125 48.2324V46.4844H56.8684Z" fill="#055DF3" stroke="#2C2C2C"/>
<path d="M56.8684 50.8594V52.7764H50.5764V50.8594H56.8684ZM45.2014 50.8594V52.7764H37.4514V50.8594H45.2014ZM32.0764 50.8594V52.7764H24.3264V50.8594H32.0764ZM18.9514 50.8594V52.7764H12.9446V50.8594H18.9514Z" fill="#F2FBFF" stroke="#2C2C2C"/>
</svg>
