<svg width="70" height="70" viewBox="0 0 70 70" fill="none" xmlns="http://www.w3.org/2000/svg">
<path d="M16 0.5H54C57.7854 0.5 60.5745 0.500713 62.7119 0.788086C64.8348 1.07354 66.2406 1.63315 67.3037 2.69629C68.3668 3.75943 68.9265 5.16519 69.2119 7.28809C69.4993 9.42554 69.5 12.2146 69.5 16V54C69.5 57.7854 69.4993 60.5745 69.2119 62.7119C68.9265 64.8348 68.3668 66.2406 67.3037 67.3037C66.2406 68.3668 64.8348 68.9265 62.7119 69.2119C60.5745 69.4993 57.7854 69.5 54 69.5H16C12.2146 69.5 9.42554 69.4993 7.28809 69.2119C5.16519 68.9265 3.75943 68.3668 2.69629 67.3037C1.63315 66.2406 1.07354 64.8348 0.788086 62.7119C0.500713 60.5745 0.5 57.7854 0.5 54V16C0.5 12.2146 0.500713 9.42554 0.788086 7.28809C1.07354 5.16519 1.63315 3.75943 2.69629 2.69629C3.75943 1.63315 5.16519 1.07354 7.28809 0.788086C9.42554 0.500713 12.2146 0.5 16 0.5Z" fill="#2C2C2C" stroke="#2C2C2C"/>
<path d="M51.7717 27.334C52.0124 27.3339 52.2506 27.3816 52.4729 27.4736C52.6952 27.5657 52.8975 27.7 53.0676 27.8701C53.2378 28.0403 53.373 28.2425 53.4651 28.4648C53.5571 28.6871 53.6038 28.9255 53.6038 29.166V50.6885H29.5208V27.334H51.7717Z" fill="#FD5001" stroke="#2C2C2C" stroke-width="8"/>
<path d="M24.0178 25.1465L24.1077 25.1572C24.1373 25.1643 24.1662 25.1746 24.1936 25.1885C24.2483 25.2163 24.2961 25.2571 24.3323 25.3066L24.3362 25.3125L24.3411 25.3184L24.6252 25.7051L27.9709 30.3135C28.6128 31.1984 29.4558 31.9189 30.4299 32.415C31.4027 32.9103 32.479 33.1667 33.5706 33.166V33.167H47.7708V50.6885H16.3958V25.1465H24.0178Z" fill="#FFBE02" stroke="#2C2C2C" stroke-width="8"/>
<mask id="path-4-inside-1_272_442" fill="white">
<path d="M51.7712 15.3125C41.8765 15.3125 35.7296 20.3416 35.7296 28.4375V34.2708H32.0837C31.9396 34.2709 31.7986 34.3136 31.6787 34.3938C31.5588 34.4739 31.4654 34.5878 31.4102 34.721C31.3551 34.8542 31.3406 35.0008 31.3687 35.1422C31.3969 35.2836 31.4663 35.4135 31.5682 35.5155L38.8599 42.8072C38.9966 42.9439 39.1821 43.0207 39.3754 43.0207C39.5688 43.0207 39.7542 42.9439 39.8909 42.8072L47.1826 35.5155C47.2845 35.4135 47.354 35.2836 47.3821 35.1422C47.4102 35.0008 47.3958 34.8542 47.3406 34.721C47.2854 34.5878 47.192 34.4739 47.0721 34.3938C46.9522 34.3136 46.8113 34.2709 46.6671 34.2708H43.0212V28.4375C43.0212 23.2947 47.141 16.7708 51.7712 16.7708C51.9646 16.7708 52.1501 16.694 52.2868 16.5573C52.4236 16.4205 52.5004 16.2351 52.5004 16.0417C52.5004 15.8483 52.4236 15.6628 52.2868 15.5261C52.1501 15.3893 51.9646 15.3125 51.7712 15.3125Z"/>
</mask>
<path d="M51.7712 15.3125C41.8765 15.3125 35.7296 20.3416 35.7296 28.4375V34.2708H32.0837C31.9396 34.2709 31.7986 34.3136 31.6787 34.3938C31.5588 34.4739 31.4654 34.5878 31.4102 34.721C31.3551 34.8542 31.3406 35.0008 31.3687 35.1422C31.3969 35.2836 31.4663 35.4135 31.5682 35.5155L38.8599 42.8072C38.9966 42.9439 39.1821 43.0207 39.3754 43.0207C39.5688 43.0207 39.7542 42.9439 39.8909 42.8072L47.1826 35.5155C47.2845 35.4135 47.354 35.2836 47.3821 35.1422C47.4102 35.0008 47.3958 34.8542 47.3406 34.721C47.2854 34.5878 47.192 34.4739 47.0721 34.3938C46.9522 34.3136 46.8113 34.2709 46.6671 34.2708H43.0212V28.4375C43.0212 23.2947 47.141 16.7708 51.7712 16.7708C51.9646 16.7708 52.1501 16.694 52.2868 16.5573C52.4236 16.4205 52.5004 16.2351 52.5004 16.0417C52.5004 15.8483 52.4236 15.6628 52.2868 15.5261C52.1501 15.3893 51.9646 15.3125 51.7712 15.3125Z" fill="#055DF3"/>
<path d="M35.7296 34.2708V42.2708H43.7296V34.2708H35.7296ZM32.0837 34.2708V26.2708L32.082 26.2708L32.0837 34.2708ZM31.5682 35.5155L25.9105 41.1715L25.9114 41.1724L31.5682 35.5155ZM38.8599 42.8072L33.203 48.464L33.2039 48.4649L38.8599 42.8072ZM39.8909 42.8072L45.5469 48.4649L45.5478 48.464L39.8909 42.8072ZM47.1826 35.5155L52.8395 41.1724L52.8403 41.1715L47.1826 35.5155ZM46.6671 34.2708L46.6688 26.2708H46.6671V34.2708ZM43.0212 34.2708H35.0212V42.2708H43.0212V34.2708ZM51.7712 15.3125V7.3125C45.555 7.3125 39.568 8.88869 34.974 12.6473C30.1962 16.5564 27.7296 22.1868 27.7296 28.4375H35.7296H43.7296C43.7296 26.5923 44.3364 25.6602 45.1057 25.0307C46.0589 24.2508 48.0927 23.3125 51.7712 23.3125V15.3125ZM35.7296 28.4375H27.7296V34.2708H35.7296H43.7296V28.4375H35.7296ZM35.7296 34.2708V26.2708H32.0837V34.2708V42.2708H35.7296V34.2708ZM32.0837 34.2708L32.082 26.2708C30.3558 26.2712 28.6685 26.7834 27.2333 27.7426L31.6787 34.3938L36.1241 41.045C34.9287 41.8439 33.5233 42.2705 32.0855 42.2708L32.0837 34.2708ZM31.6787 34.3938L27.2333 27.7426C25.7982 28.7018 24.6796 30.0649 24.0191 31.6597L31.4102 34.721L38.8014 37.7822C38.2512 39.1106 37.3195 40.246 36.1241 41.045L31.6787 34.3938ZM31.4102 34.721L24.0191 31.6597C23.3586 33.2546 23.1857 35.0094 23.5224 36.7025L31.3687 35.1422L39.2151 33.582C39.4955 34.9922 39.3515 36.4539 38.8014 37.7822L31.4102 34.721ZM31.3687 35.1422L23.5224 36.7025C23.859 38.3955 24.6901 39.9507 25.9105 41.1715L31.5682 35.5155L37.2259 29.8595C38.2425 30.8764 38.9347 32.1718 39.2151 33.582L31.3687 35.1422ZM31.5682 35.5155L25.9114 41.1724L33.203 48.464L38.8599 42.8072L44.5167 37.1503L37.2251 29.8587L31.5682 35.5155ZM38.8599 42.8072L33.2039 48.4649C34.8409 50.1014 37.0608 51.0207 39.3754 51.0207V43.0207V35.0207C41.3034 35.0207 43.1524 35.7864 44.5159 37.1495L38.8599 42.8072ZM39.3754 43.0207V51.0207C41.6901 51.0207 43.91 50.1014 45.5469 48.4649L39.8909 42.8072L34.2349 37.1495C35.5984 35.7864 37.4475 35.0207 39.3754 35.0207V43.0207ZM39.8909 42.8072L45.5478 48.464L52.8395 41.1724L47.1826 35.5155L41.5257 29.8587L34.2341 37.1503L39.8909 42.8072ZM47.1826 35.5155L52.8403 41.1715C54.0608 39.9507 54.8918 38.3955 55.2285 36.7025L47.3821 35.1422L39.5357 33.582C39.8161 32.1718 40.5083 30.8764 41.5249 29.8595L47.1826 35.5155ZM47.3821 35.1422L55.2285 36.7025C55.5651 35.0095 55.3923 33.2546 54.7317 31.6597L47.3406 34.721L39.9495 37.7822C39.3993 36.4538 39.2553 34.9921 39.5357 33.582L47.3821 35.1422ZM47.3406 34.721L54.7317 31.6597C54.0712 30.0649 52.9526 28.7017 51.5175 27.7426L47.0721 34.3938L42.6267 41.045C41.4314 40.246 40.4997 39.1106 39.9495 37.7822L47.3406 34.721ZM47.0721 34.3938L51.5175 27.7426C50.0823 26.7834 48.395 26.2712 46.6688 26.2708L46.6671 34.2708L46.6654 42.2708C45.2276 42.2705 43.8221 41.8439 42.6267 41.045L47.0721 34.3938ZM46.6671 34.2708V26.2708H43.0212V34.2708V42.2708H46.6671V34.2708ZM43.0212 34.2708H51.0212V28.4375H43.0212H35.0212V34.2708H43.0212ZM43.0212 28.4375H51.0212C51.0212 28.182 51.0806 27.6925 51.3033 27.0442C51.5217 26.4084 51.8382 25.7944 52.1907 25.2961C52.5554 24.7806 52.8334 24.5636 52.8901 24.5258C52.9329 24.4972 52.539 24.7708 51.7712 24.7708V16.7708V8.77083C45.6747 8.77083 41.3887 12.8614 39.1292 16.0551C36.7189 19.4618 35.0212 23.9624 35.0212 28.4375H43.0212ZM51.7712 16.7708V24.7708C54.0864 24.7708 56.3067 23.8512 57.9437 22.2141L52.2868 16.5573L46.63 10.9004C47.9935 9.53686 49.8429 8.77083 51.7712 8.77083V16.7708ZM52.2868 16.5573L57.9437 22.2141C59.5807 20.5771 60.5004 18.3568 60.5004 16.0417H52.5004H44.5004C44.5004 14.1133 45.2664 12.264 46.63 10.9004L52.2868 16.5573ZM52.5004 16.0417H60.5004C60.5004 13.7266 59.5807 11.5063 57.9437 9.86921L52.2868 15.5261L46.63 21.1829C45.2664 19.8194 44.5004 17.97 44.5004 16.0417H52.5004ZM52.2868 15.5261L57.9437 9.86921C56.3067 8.23218 54.0864 7.3125 51.7712 7.3125V15.3125V23.3125C49.8429 23.3125 47.9935 22.5465 46.63 21.1829L52.2868 15.5261Z" fill="#2C2C2C" mask="url(#path-4-inside-1_272_442)"/>
</svg>
