<svg width="70" height="70" viewBox="0 0 70 70" fill="none" xmlns="http://www.w3.org/2000/svg">
<path d="M16 0.5H54C57.7854 0.5 60.5745 0.500713 62.7119 0.788086C64.8348 1.07354 66.2406 1.63315 67.3037 2.69629C68.3668 3.75943 68.9265 5.16519 69.2119 7.28809C69.4993 9.42554 69.5 12.2146 69.5 16V54C69.5 57.7854 69.4993 60.5745 69.2119 62.7119C68.9265 64.8348 68.3668 66.2406 67.3037 67.3037C66.2406 68.3668 64.8348 68.9265 62.7119 69.2119C60.5745 69.4993 57.7854 69.5 54 69.5H16C12.2146 69.5 9.42554 69.4993 7.28809 69.2119C5.16519 68.9265 3.75943 68.3668 2.69629 67.3037C1.63315 66.2406 1.07354 64.8348 0.788086 62.7119C0.500713 60.5745 0.5 57.7854 0.5 54V16C0.5 12.2146 0.500713 9.42554 0.788086 7.28809C1.07354 5.16519 1.63315 3.75943 2.69629 2.69629C3.75943 1.63315 5.16519 1.07354 7.28809 0.788086C9.42554 0.500713 12.2146 0.5 16 0.5Z" fill="#2C2C2C" stroke="#2C2C2C"/>
<path d="M37.4187 52.7598V55.9845H32.8333V52.6085C28.4443 52.113 24.3298 50.2235 21.0938 47.2174L24.7214 42.733C26.983 44.8855 29.7868 46.3834 32.8333 47.0668V37.2413C26.6354 35.6287 22.454 33.4132 22.454 27.4664C22.454 22.025 26.6358 17.8414 32.8333 17.0871V14.0137H37.4187V17.1378C41.3516 17.5445 45.0552 19.1846 47.9996 21.8234L44.5725 26.4587C42.5392 24.6239 40.0804 23.3252 37.4187 22.6802V32.1524C44.3214 33.7143 48.9064 36.0823 48.9064 42.2291C48.9064 48.0238 44.7242 52.2559 37.4187 52.7598ZM32.8333 30.9431V22.5792C30.3647 23.1837 28.8021 24.9472 28.8021 26.9123C28.8021 28.9277 30.1124 29.9857 32.8333 30.9431ZM42.6082 42.8336C42.6082 40.516 40.9956 39.4579 37.4187 38.3999V47.3687C40.8447 46.9654 42.6082 45.051 42.6082 42.8336Z" fill="#006D34"/>
</svg>
