<svg width="43" height="39" viewBox="0 0 43 39" fill="none" xmlns="http://www.w3.org/2000/svg">
<path d="M42.9899 38.2151L39.6117 19.3203C39.595 19.2271 39.5582 19.1389 39.5039 19.0619C39.4496 18.9849 39.3792 18.9211 39.2976 18.8751L30.7948 14.0741C30.6864 14.0132 30.5627 13.9862 30.4392 13.9964L31.9862 34.2551L31.9343 34.2786L42.1103 38.9132C42.2151 38.961 42.3309 38.9789 42.445 38.9648C42.5591 38.9507 42.6672 38.9052 42.7577 38.8333C42.8483 38.7615 42.9178 38.666 42.9587 38.557C42.9996 38.4481 43.0104 38.3298 42.9899 38.2151ZM21.4999 18.6639L12.8036 14.0656C12.7009 14.0116 12.5855 13.9875 12.4701 13.9957C12.5002 13.9939 12.5305 13.994 12.5606 13.9964L11.0137 34.2551L21.2415 38.9133C21.3227 38.9503 21.4108 38.9694 21.4999 38.9694V18.6639Z" fill="#006D34"/>
<path d="M12.5608 13.9963C12.4373 13.986 12.3136 14.013 12.2052 14.0738L3.70227 18.8749C3.62074 18.9209 3.55029 18.9847 3.49598 19.0616C3.44168 19.1386 3.40488 19.2269 3.38825 19.32L0.0101182 38.2148C-0.0103831 38.3296 0.000398099 38.4478 0.0412966 38.5568C0.082195 38.6658 0.151655 38.7613 0.242169 38.8331C0.332696 38.905 0.440841 38.9505 0.554938 38.9645C0.669035 38.9786 0.784753 38.9608 0.889609 38.913L11.0101 34.3037L12.5608 13.9963ZM30.4394 13.9958C30.3546 14.0022 30.2719 14.0259 30.1963 14.0656L21.5001 18.6637V38.9693H21.5002C21.5893 38.9693 21.6774 38.9502 21.7586 38.9131L31.9864 34.255L30.4394 13.9958Z" fill="#006D34"/>
<path d="M2.36398 25.0465L1.67773 28.8849L11.8394 23.4362L12.0753 20.3464L12.1145 19.834L2.36398 25.0465Z" fill="#FFBE02"/>
<path d="M11.9314 22.2383L11.8399 23.4364L1.67823 28.8851L0.0101182 38.2154C-0.0103831 38.3302 0.000398099 38.4484 0.0412966 38.5574C0.082195 38.6664 0.151655 38.7619 0.242169 38.8337C0.332696 38.9056 0.440841 38.9511 0.554938 38.9652C0.669035 38.9792 0.784753 38.9614 0.889609 38.9136L11.0101 34.3043L11.9314 22.2383Z" fill="#8FD4F5"/>
<path d="M21.5021 21.1981L12.1144 19.8353L11.8394 23.4375L21.4996 38.3308V32.9152L15.7351 23.7004L21.5021 24.4006V21.1981ZM38.628 18.4988L34.5434 16.1924L30.6765 17.1096L30.7249 17.7436L30.9159 20.2447L38.628 18.4988Z" fill="#F4D500"/>
<path d="M31.2591 24.7348L30.893 19.939L30.6769 17.1084L21.5024 21.1968V24.3994L27.4953 21.7538L31.2591 24.7348Z" fill="#FFBE02"/>
<path d="M42.9897 38.2161L42.1412 33.4699L30.916 20.2441L31.259 24.7355L42.7708 38.8224C42.857 38.7502 42.9228 38.6559 42.9612 38.5494C42.9997 38.4428 43.0095 38.3278 42.9897 38.2161Z" fill="#F4D500"/>
<path d="M21.5399 0C16.6719 0 12.7114 4.01733 12.7114 8.95531C12.7114 12.0099 14.1399 15.2893 16.9574 18.7025C19.0267 21.2094 21.0679 22.8218 21.1538 22.8893C21.2643 22.9761 21.4002 23.0232 21.54 23.0231C21.6798 23.0232 21.8157 22.9761 21.9263 22.8893C22.0121 22.8218 24.0533 21.2094 26.1227 18.7025C28.9401 15.2893 30.3686 12.01 30.3686 8.95531C30.3684 4.01733 26.408 0 21.5399 0ZM24.8095 8.95522C24.8095 10.7868 23.3456 12.2717 21.5399 12.2717C19.7343 12.2717 18.2704 10.7869 18.2704 8.95522C18.2704 7.12356 19.7343 5.63874 21.5399 5.63874C23.3456 5.63874 24.8095 7.12364 24.8095 8.95522Z" fill="#FD5001"/>
<path d="M21.5401 0C21.1543 0 20.7743 0.0254078 20.4014 0.0743476C24.7336 0.642783 28.0912 4.40868 28.0912 8.95531C28.0912 12.0099 26.6627 15.2893 23.8453 18.7025C22.5145 20.3146 21.1964 21.5559 20.4015 22.2553C20.8427 22.6434 21.1234 22.8652 21.154 22.8893C21.2645 22.9761 21.4004 23.0232 21.5402 23.0231C21.68 23.0232 21.8159 22.9761 21.9265 22.8893C22.0123 22.8218 24.0535 21.2094 26.1228 18.7025C28.9403 15.2893 30.3688 12.01 30.3688 8.95531C30.3686 4.01733 26.4081 0 21.5401 0Z" fill="#FE1300"/>
<path d="M21.758 38.9136L25.5613 37.1815L21.4995 32.9141V38.9698H21.4996C21.5887 38.9699 21.6768 38.9507 21.758 38.9136Z" fill="#FFBE02"/>
<path d="M39.6117 19.3202C39.5951 19.227 39.5583 19.1388 39.504 19.0618C39.4497 18.9848 39.3792 18.921 39.2977 18.875L38.6284 18.4971L30.9163 20.243L42.1414 33.4687L39.6117 19.3202ZM21.5 38.9694C21.5 38.9694 21.5 38.9694 21.5 38.9694V38.3292L11.8398 23.4359L11.0137 34.2551L21.2415 38.9132C21.3228 38.9503 21.4109 38.9694 21.5 38.9694Z" fill="#055DF3"/>
</svg>
