<svg width="70" height="70" viewBox="0 0 70 70" fill="none" xmlns="http://www.w3.org/2000/svg">
<rect x="0.5" y="0.5" width="69" height="69" rx="7.5" fill="#2C2C2C" stroke="#2C2C2C"/>
<path d="M48.0015 18.9014L48.9429 20.0303M48.0015 18.9014C46.216 20.3916 44.4257 21.8766 42.6323 23.3574C42.8999 23.7581 43.1964 24.1408 43.5171 24.5059C45.3636 22.9922 47.1956 21.4866 48.8335 20.1387L48.8628 20.167M48.0015 18.9014L48.9429 20.0303M48.0015 18.9014C47.8348 18.5247 47.7266 18.126 47.6782 17.7188C48.3146 18.3118 48.8799 18.9477 49.3735 19.6074M48.9429 20.0303L49.3735 19.6074M48.9429 20.0303L49.3735 19.6074M49.3735 19.6074C49.3804 19.6165 49.3872 19.6256 49.394 19.6348M49.394 19.6348L48.8628 20.167M49.394 19.6348L48.8628 20.167M49.394 19.6348C49.439 19.6952 49.4851 19.7547 49.5288 19.8154C49.8155 20.2137 50.0945 20.6513 50.3608 21.123C50.2999 21.1008 50.2391 21.0769 50.1792 21.0518C49.687 20.845 49.2404 20.544 48.8628 20.167" fill="#055DF3" stroke="#2C2C2C" stroke-width="30.2368"/>
<path d="M30.8865 29.6709L34.4167 29.9297M30.8865 29.6709C30.8798 29.7618 30.8764 29.8532 30.8757 29.9443H33.8992L34.4119 29.9434C34.4136 29.9388 34.415 29.9342 34.4167 29.9297M30.8865 29.6709L34.4167 29.9297M30.8865 29.6709C28.825 28.8566 26.631 27.9921 24.3816 27.1055C24.5063 26.639 24.658 26.1806 24.8425 25.7354C25.3092 25.9213 25.7749 26.1097 26.2419 26.2949L31.2371 28.2598C31.5216 27.6248 31.9609 27.073 32.5134 26.6553L32.7576 26.4854C33.425 26.0526 34.2033 25.8219 34.9988 25.8213V27.8945C34.943 28.1897 34.8793 28.4701 34.8083 28.7334C34.7055 29.115 34.5748 29.5159 34.4167 29.9297M34.4021 29.9688C33.9909 31.0353 33.3923 32.1825 32.6003 33.2979C32.4182 33.1675 32.2452 33.0227 32.0847 32.8623L32.0837 32.8613C31.3114 32.0889 30.8771 31.0415 30.8757 29.9492H31.3416L34.4021 29.9688ZM35.0037 25.8213C35.0791 25.8214 35.1543 25.823 35.2292 25.8271C35.1991 26.5617 35.1196 27.2512 35.0027 27.875L35.0037 25.8213Z" fill="#FE1300" stroke="#2C2C2C" stroke-width="30.2368"/>
<path d="M21.2078 43.1816C20.9908 43.0704 20.771 42.9642 20.5476 42.8652L20.2537 42.7402M21.2078 43.1816V47.1191M21.2078 43.1816C21.9834 43.5792 22.7165 44.0539 23.3962 44.5986V45.6953C22.7188 46.2392 21.9873 46.7188 21.2078 47.1191M21.2078 43.1816V47.1191M21.2078 47.1191C20.2842 47.5935 19.2959 47.9593 18.2595 48.2012C18.1785 48.1822 18.0978 48.1621 18.0173 48.1416M18.0173 48.1416L20.2537 42.7402M18.0173 48.1416L20.2537 42.7402M18.0173 48.1416C16.2024 47.6803 14.5423 46.8332 13.1248 45.6953V44.6006C14.6031 43.414 16.3456 42.5431 18.2517 42.0967C18.8307 42.232 19.4009 42.4066 19.9578 42.6211L20.2537 42.7402" fill="#FFBE02" stroke="#2C2C2C" stroke-width="30.2368"/>
<path d="M37.9475 53.4551C37.0239 53.9294 36.0357 54.2953 34.9993 54.5371C34.4886 54.4178 33.9896 54.2687 33.5042 54.0908M37.9475 53.4551V52.2588M37.9475 53.4551C38.7271 53.0547 39.4585 52.5752 40.136 52.0312V44.5986C39.4563 44.054 38.7232 43.5792 37.9475 43.1816M37.9475 53.4551V43.1816M33.5042 54.0908L37.9475 52.2588M33.5042 54.0908L37.9475 52.2588M33.5042 54.0908C33.2973 54.015 33.0927 53.9346 32.8909 53.8486M37.9475 52.2588V48.7988M32.8909 53.8486L37.9475 48.7988M32.8909 53.8486L37.9475 48.7988M32.8909 53.8486C32.7502 53.7887 32.611 53.7258 32.4729 53.6611M37.9475 48.7988V43.1816M37.9475 43.1816C37.7305 43.0704 37.5107 42.9642 37.2874 42.8652L36.9934 42.7402M32.4729 53.6611L36.9934 42.7402M32.4729 53.6611L36.9934 42.7402M32.4729 53.6611C31.5361 53.2222 30.6626 52.6719 29.8645 52.0312V44.6006C31.3428 43.414 33.0853 42.5431 34.9915 42.0967C35.5705 42.232 36.1407 42.4066 36.6975 42.6211L36.9934 42.7402" fill="#FE1300" stroke="#2C2C2C" stroke-width="30.2368"/>
<mask id="path-6-inside-1_272_498" fill="white">
<path d="M48.8252 25.4004H54.723C55.9356 25.4004 56.9112 26.376 56.9112 27.5859V54.688C56.9112 55.9006 55.9356 56.8762 54.723 56.8762H48.8252C48.5376 56.8769 48.2528 56.8208 47.9869 56.7111C47.7211 56.6014 47.4796 56.4403 47.2763 56.2369C47.0729 56.0336 46.9118 55.792 46.8021 55.5262C46.6923 55.2604 46.6362 54.9755 46.637 54.688V27.5859C46.637 26.3732 47.6153 25.4004 48.8252 25.4004Z"/>
</mask>
<path d="M48.8252 25.4004H54.723C55.9356 25.4004 56.9112 26.376 56.9112 27.5859V54.688C56.9112 55.9006 55.9356 56.8762 54.723 56.8762H48.8252C48.5376 56.8769 48.2528 56.8208 47.9869 56.7111C47.7211 56.6014 47.4796 56.4403 47.2763 56.2369C47.0729 56.0336 46.9118 55.792 46.8021 55.5262C46.6923 55.2604 46.6362 54.9755 46.637 54.688V27.5859C46.637 26.3732 47.6153 25.4004 48.8252 25.4004Z" fill="#055DF3"/>
<path d="M48.8252 56.8762V26.6394H48.787L48.7487 26.6395L48.8252 56.8762ZM46.637 54.688L76.8737 54.7644L76.8738 54.7262V54.688H46.637ZM48.8252 25.4004V55.6372H54.723V25.4004V-4.83643H48.8252V25.4004ZM54.723 25.4004V55.6372C39.2611 55.6372 26.6744 43.1001 26.6744 27.5859H56.9112H87.148C87.148 9.65185 72.6101 -4.83643 54.723 -4.83643V25.4004ZM56.9112 27.5859H26.6744V54.688H56.9112H87.148V27.5859H56.9112ZM56.9112 54.688H26.6744C26.6744 39.2013 39.2363 26.6394 54.723 26.6394V56.8762V87.113C72.6349 87.113 87.148 72.5999 87.148 54.688H56.9112ZM54.723 56.8762V26.6394H48.8252V56.8762V87.113H54.723V56.8762ZM48.8252 56.8762L48.7487 26.6395C52.4448 26.6301 56.1063 27.3512 59.5227 28.7613L47.9869 56.7111L36.4511 84.6609C40.3993 86.2904 44.6305 87.1237 48.9017 87.1129L48.8252 56.8762ZM47.9869 56.7111L59.5227 28.7613C62.9391 30.1714 66.0433 32.2426 68.6569 34.8562L47.2763 56.2369L25.8956 77.6176C28.9159 80.6379 32.5032 83.0314 36.4511 84.6609L47.9869 56.7111ZM47.2763 56.2369L68.6569 34.8562C71.2704 37.4698 73.3417 40.5739 74.7518 43.9904L46.8021 55.5262L18.8523 67.062C20.4818 71.0102 22.8754 74.5974 25.8956 77.6176L47.2763 56.2369ZM46.8021 55.5262L74.7518 43.9904C76.162 47.407 76.883 51.0684 76.8737 54.7644L46.637 54.688L16.4002 54.6115C16.3895 58.8827 17.2227 63.1139 18.8523 67.062L46.8021 55.5262ZM46.637 54.688H76.8738V27.5859H46.637H16.4002V54.688H46.637ZM46.637 27.5859H76.8738C76.8738 43.147 64.2401 55.6372 48.8252 55.6372V25.4004V-4.83643C30.9906 -4.83643 16.4002 9.59946 16.4002 27.5859H46.637Z" fill="#2C2C2C" mask="url(#path-6-inside-1_272_498)"/>
<path d="M18.2593 27.9521L18.0552 27.9463C17.037 27.8952 16.0708 27.4689 15.3462 26.7451M18.2593 27.9521V23.8311M18.2593 27.9521C19.3529 27.9521 20.4017 27.5172 21.1753 26.7441L21.1763 26.7422M18.2593 27.9521L18.2622 23.8291M15.3462 26.7451L18.2593 23.8311M15.3462 26.7451L18.2593 23.8311M15.3462 26.7451L15.3442 26.7432C14.9581 26.3569 14.656 25.9021 14.4507 25.4072M18.2593 23.8311V23.8291L14.4507 25.4072M18.2622 23.8291L21.1763 26.7422M18.2622 23.8291L21.1763 26.7422M18.2622 23.8291H22.3853L22.3794 24.0332C22.3282 25.0518 21.9007 26.0175 21.1763 26.7422M14.4507 25.4072L18.2563 23.8301L18.2583 23.8291H14.1362L14.1411 24.0332C14.165 24.509 14.2708 24.9735 14.4507 25.4072Z" fill="#FFBE02" stroke="#2C2C2C" stroke-width="30.2368"/>
<mask id="path-9-inside-2_272_498" fill="white">
<path d="M46.6948 54.5726V54.7573C46.6948 55.9699 47.6732 56.9483 48.8858 56.9483H53.8272C54.0016 56.7314 54.1104 56.4693 54.1409 56.1927C54.1713 55.9161 54.1221 55.6366 53.9991 55.387C53.876 55.1374 53.6842 54.9282 53.4463 54.7839C53.2084 54.6397 52.9342 54.5663 52.656 54.5726H46.6948Z"/>
</mask>
<path d="M46.6948 54.5726V54.7573C46.6948 55.9699 47.6732 56.9483 48.8858 56.9483H53.8272C54.0016 56.7314 54.1104 56.4693 54.1409 56.1927C54.1713 55.9161 54.1221 55.6366 53.9991 55.387C53.876 55.1374 53.6842 54.9282 53.4463 54.7839C53.2084 54.6397 52.9342 54.5663 52.656 54.5726H46.6948Z" fill="#8FD4F5"/>
<path d="M46.6948 54.5726V24.3358H16.458V54.5726H46.6948ZM53.8272 56.9483V87.1851H68.3127L77.3903 75.8968L53.8272 56.9483ZM52.656 54.5726V84.8095H52.9977L53.3394 84.8017L52.656 54.5726ZM46.6948 54.5726H16.458V54.7573H46.6948H76.9316V54.5726H46.6948ZM46.6948 54.7573H16.458C16.458 72.6692 30.9739 87.1851 48.8858 87.1851V56.9483V26.7115C64.3725 26.7115 76.9316 39.2706 76.9316 54.7573H46.6948ZM48.8858 56.9483V87.1851H53.8272V56.9483V26.7115H48.8858V56.9483ZM53.8272 56.9483L77.3903 75.8968C81.1745 71.191 83.5357 65.5023 84.1963 59.5002L54.1409 56.1927L24.0855 52.8852C24.6851 47.4362 26.8287 42.2718 30.2642 37.9998L53.8272 56.9483ZM54.1409 56.1927L84.1963 59.5002C84.8568 53.4978 83.789 47.4318 81.1188 42.0159L53.9991 55.387L26.8793 68.7581C24.4552 63.8413 23.4858 58.3344 24.0855 52.8852L54.1409 56.1927ZM53.9991 55.387L81.1188 42.0159C78.4485 36.5999 74.2867 32.0594 69.1233 28.9286L53.4463 54.7839L37.7693 80.6392C33.0818 77.797 29.3035 73.6749 26.8793 68.7581L53.9991 55.387ZM53.4463 54.7839L69.1233 28.9286C63.9598 25.7978 58.0095 24.2071 51.9725 24.3435L52.656 54.5726L53.3394 84.8017C47.8588 84.9256 42.4569 83.4815 37.7693 80.6392L53.4463 54.7839ZM52.656 54.5726V24.3358H46.6948V54.5726V84.8095H52.656V54.5726Z" fill="#2C2C2C" mask="url(#path-9-inside-2_272_498)"/>
<mask id="path-11-inside-3_272_498" fill="white">
<path d="M29.8948 54.5723V54.7569C29.8937 55.0449 29.9496 55.3303 30.0593 55.5967C30.1691 55.863 30.3304 56.1049 30.5341 56.3086C30.7378 56.5123 30.9797 56.6736 31.246 56.7834C31.5123 56.8931 31.7977 56.949 32.0858 56.9479H37.9863C38.2743 56.949 38.5597 56.8931 38.826 56.7834C39.0924 56.6736 39.3343 56.5123 39.538 56.3086C39.7417 56.1049 39.903 55.863 40.0127 55.5967C40.1224 55.3303 40.1784 55.0449 40.1773 54.7569V54.5723H29.8948Z"/>
</mask>
<path d="M29.8948 54.5723V54.7569C29.8937 55.0449 29.9496 55.3303 30.0593 55.5967C30.1691 55.863 30.3304 56.1049 30.5341 56.3086C30.7378 56.5123 30.9797 56.6736 31.246 56.7834C31.5123 56.8931 31.7977 56.949 32.0858 56.9479H37.9863C38.2743 56.949 38.5597 56.8931 38.826 56.7834C39.0924 56.6736 39.3343 56.5123 39.538 56.3086C39.7417 56.1049 39.903 55.863 40.0127 55.5967C40.1224 55.3303 40.1784 55.0449 40.1773 54.7569V54.5723H29.8948Z" fill="#FD5001"/>
<path d="M29.8948 54.5723V24.3354H-0.342026V54.5723H29.8948ZM29.8948 54.7569L60.1314 54.8717L60.1316 54.8143V54.7569H29.8948ZM32.0858 56.9479V26.7111H32.0284L31.971 26.7113L32.0858 56.9479ZM37.9863 56.9479L38.101 26.7113L38.0437 26.7111H37.9863V56.9479ZM40.1773 54.7569H9.94046V54.8143L9.94068 54.8717L40.1773 54.7569ZM40.1773 54.5723H70.4141V24.3354H40.1773V54.5723ZM29.8948 54.5723H-0.342026V54.7569H29.8948H60.1316V54.5723H29.8948ZM29.8948 54.7569L-0.341808 54.6422C-0.358044 58.9203 0.472626 63.1593 2.10226 67.1148L30.0593 55.5967L58.0164 44.0786C59.4266 47.5014 60.1454 51.1696 60.1314 54.8717L29.8948 54.7569ZM30.0593 55.5967L2.10226 67.1148C3.73192 71.0703 6.12836 74.6642 9.15342 77.6893L30.5341 56.3086L51.9147 34.928C54.5325 37.5457 56.6062 40.6556 58.0164 44.0786L30.0593 55.5967ZM30.5341 56.3086L9.15342 77.6893C12.1784 80.7143 15.7723 83.1107 19.7279 84.7404L31.246 56.7834L42.7641 28.8263C46.1871 30.2365 49.2971 32.3103 51.9147 34.928L30.5341 56.3086ZM31.246 56.7834L19.7279 84.7404C23.6835 86.3701 27.9225 87.2007 32.2005 87.1845L32.0858 56.9479L31.971 26.7113C35.673 26.6973 39.3412 27.416 42.7641 28.8263L31.246 56.7834ZM32.0858 56.9479V87.1847H37.9863V56.9479V26.7111H32.0858V56.9479ZM37.9863 56.9479L37.8715 87.1845C42.1496 87.2007 46.3885 86.3701 50.3441 84.7404L38.826 56.7834L27.3079 28.8263C30.7309 27.416 34.3991 26.6973 38.101 26.7113L37.9863 56.9479ZM38.826 56.7834L50.3441 84.7404C54.2998 83.1107 57.8936 80.7143 60.9186 77.6893L39.538 56.3086L18.1573 34.928C20.775 32.3103 23.8849 30.2365 27.3079 28.8263L38.826 56.7834ZM39.538 56.3086L60.9186 77.6893C63.9438 74.6642 66.3402 71.0703 67.9698 67.1148L40.0127 55.5967L12.0556 44.0786C13.4658 40.6557 15.5396 37.5457 18.1573 34.928L39.538 56.3086ZM40.0127 55.5967L67.9698 67.1148C69.5994 63.1593 70.4301 58.9204 70.4139 54.6422L40.1773 54.7569L9.94068 54.8717C9.92663 51.1695 10.6455 47.5013 12.0556 44.0786L40.0127 55.5967ZM40.1773 54.7569H70.4141V54.5723H40.1773H9.94046V54.7569H40.1773ZM40.1773 54.5723V24.3354H29.8948V54.5723V84.8091H40.1773V54.5723Z" fill="#2C2C2C" mask="url(#path-11-inside-3_272_498)"/>
<mask id="path-13-inside-4_272_498" fill="white">
<path d="M17.7405 56.9479H21.2241C21.5121 56.949 21.7975 56.8931 22.0638 56.7834C22.3301 56.6736 22.5721 56.5123 22.7758 56.3086C22.9795 56.1049 23.1408 55.863 23.2505 55.5967C23.3602 55.3303 23.4162 55.0449 23.4151 54.7569V54.5723H18.8788C18.6034 54.5723 18.3336 54.6502 18.1006 54.797C17.8676 54.9438 17.6808 55.1534 17.5618 55.4018C17.4429 55.6501 17.3965 55.9271 17.4281 56.2006C17.4597 56.4742 17.568 56.7332 17.7405 56.9479Z"/>
</mask>
<path d="M17.7405 56.9479H21.2241C21.5121 56.949 21.7975 56.8931 22.0638 56.7834C22.3301 56.6736 22.5721 56.5123 22.7758 56.3086C22.9795 56.1049 23.1408 55.863 23.2505 55.5967C23.3602 55.3303 23.4162 55.0449 23.4151 54.7569V54.5723H18.8788C18.6034 54.5723 18.3336 54.6502 18.1006 54.797C17.8676 54.9438 17.6808 55.1534 17.5618 55.4018C17.4429 55.6501 17.3965 55.9271 17.4281 56.2006C17.4597 56.4742 17.568 56.7332 17.7405 56.9479Z" fill="#F20066"/>
<path d="M17.7405 56.9479L-5.82874 75.8887L3.24899 87.1847H17.7405V56.9479ZM21.2241 56.9479L21.3388 26.7113L21.2815 26.7111H21.2241V56.9479ZM23.4151 54.7569H-6.82175V54.8143L-6.82153 54.8717L23.4151 54.7569ZM23.4151 54.5723H53.6519V24.3354H23.4151V54.5723ZM18.8788 54.5723V24.3354H18.8714L18.8788 54.5723ZM17.7405 56.9479V87.1847H21.2241V56.9479V26.7111H17.7405V56.9479ZM21.2241 56.9479L21.1093 87.1845C25.3873 87.2007 29.6263 86.3701 33.5819 84.7404L22.0638 56.7834L10.5457 28.8263C13.9687 27.416 17.6369 26.6973 21.3388 26.7113L21.2241 56.9479ZM22.0638 56.7834L33.5819 84.7404C37.5375 83.1108 41.1314 80.7143 44.1564 77.6893L22.7758 56.3086L1.39513 34.928C4.01281 32.3103 7.12275 30.2365 10.5457 28.8263L22.0638 56.7834ZM22.7758 56.3086L44.1564 77.6893C47.1815 74.6642 49.578 71.0703 51.2076 67.1148L23.2505 55.5967L-4.70656 44.0786C-3.29637 40.6557 -1.22264 37.5457 1.39513 34.928L22.7758 56.3086ZM23.2505 55.5967L51.2076 67.1148C52.8372 63.1593 53.6679 58.9203 53.6517 54.6422L23.4151 54.7569L-6.82153 54.8717C-6.83558 51.1696 -6.11676 47.5014 -4.70656 44.0786L23.2505 55.5967ZM23.4151 54.7569H53.6519V54.5723H23.4151H-6.82175V54.7569H23.4151ZM23.4151 54.5723V24.3354H18.8788V54.5723V84.8091H23.4151V54.5723ZM18.8788 54.5723L18.8714 24.3354C12.8953 24.3369 7.04144 26.0277 1.98499 29.2128L18.1006 54.797L34.2162 80.3812C29.6258 83.2728 24.3114 84.8078 18.8861 84.8091L18.8788 54.5723ZM18.1006 54.797L1.98499 29.2128C-3.07143 32.3979 -7.12454 36.9475 -9.70671 42.3369L17.5618 55.4018L44.8304 68.4667C42.4862 73.3594 38.8066 77.4897 34.2162 80.3812L18.1006 54.797ZM17.5618 55.4018L-9.70671 42.3369C-12.2889 47.7263 -13.2949 53.7359 -12.6087 59.6723L17.4281 56.2006L47.465 52.7289C48.0879 58.1183 47.1746 63.574 44.8304 68.4667L17.5618 55.4018ZM17.4281 56.2006L-12.6087 59.6723C-11.9226 65.6089 -9.57221 71.2305 -5.82874 75.8887L17.7405 56.9479L41.3098 38.0071C44.7083 42.236 46.8421 47.3395 47.465 52.7289L17.4281 56.2006Z" fill="#2C2C2C" mask="url(#path-13-inside-4_272_498)"/>
</svg>
