<svg width="70" height="70" viewBox="0 0 70 70" fill="none" xmlns="http://www.w3.org/2000/svg">
<path d="M16 0.5H54C57.7854 0.5 60.5745 0.500713 62.7119 0.788086C64.8348 1.07354 66.2406 1.63315 67.3037 2.69629C68.3668 3.75943 68.9265 5.16519 69.2119 7.28809C69.4993 9.42554 69.5 12.2146 69.5 16V54C69.5 57.7854 69.4993 60.5745 69.2119 62.7119C68.9265 64.8348 68.3668 66.2406 67.3037 67.3037C66.2406 68.3668 64.8348 68.9265 62.7119 69.2119C60.5745 69.4993 57.7854 69.5 54 69.5H16C12.2146 69.5 9.42554 69.4993 7.28809 69.2119C5.16519 68.9265 3.75943 68.3668 2.69629 67.3037C1.63315 66.2406 1.07354 64.8348 0.788086 62.7119C0.500713 60.5745 0.5 57.7854 0.5 54V16C0.5 12.2146 0.500713 9.42554 0.788086 7.28809C1.07354 5.16519 1.63315 3.75943 2.69629 2.69629C3.75943 1.63315 5.16519 1.07354 7.28809 0.788086C9.42554 0.500713 12.2146 0.5 16 0.5Z" fill="#2C2C2C" stroke="#2C2C2C"/>
<path d="M38.9558 44.8887L45.1023 46.2783C49.0291 47.1659 51.818 50.6548 51.8181 54.6807V56.9229H18.1824V54.6807C18.1825 50.655 20.9707 47.1661 24.8972 46.2783L31.0437 44.8887H38.9558Z" fill="#055DF3" stroke="#2C2C2C"/>
<path d="M38.9561 44.8887L40.2705 45.1855C39.8846 47.7493 37.669 49.7217 35 49.7217C32.3311 49.7216 30.1154 47.7493 29.7295 45.1855L31.0439 44.8887H38.9561Z" fill="#EDEFF1" stroke="#2C2C2C"/>
<path d="M38.51 40.3477V44.3877C38.51 46.3264 36.9389 47.8983 35.0002 47.8984C33.0615 47.8984 31.4895 46.3265 31.4895 44.3877V40.3477H38.51Z" fill="#FFD3B3" stroke="#2C2C2C"/>
<path d="M38.51 40.3477V41.5801C37.4221 42.0085 36.2393 42.247 35.0002 42.2471C33.761 42.2471 32.5776 42.0085 31.4895 41.5801V40.3477H38.51Z" fill="#FCB98B" stroke="#2C2C2C"/>
<path d="M42.7947 27.6621V32.6309C42.7947 36.9355 39.3044 40.4248 34.9998 40.4248C30.6952 40.4246 27.2058 36.9354 27.2058 32.6309V27.6621H42.7947Z" fill="#FFD3B3" stroke="#2C2C2C"/>
<path d="M28.155 27.6621L27.2058 30.0352V27.6621H28.155ZM42.7947 27.6621V30.0352L41.8455 27.6621H42.7947Z" fill="#055DF3" stroke="#2C2C2C"/>
<path d="M44.5701 27.6621C44.7972 27.6621 44.982 27.8461 44.9822 28.0732V30.7168C44.9822 30.9441 44.7973 31.1279 44.5701 31.1279H43.7947V27.6621H44.5701ZM25.4294 27.6621H26.2058V31.1279H25.4294C25.2023 31.1278 25.0183 30.9439 25.0183 30.7168V28.0732C25.0185 27.8462 25.2024 27.6623 25.4294 27.6621Z" fill="#FFD3B3" stroke="#2C2C2C"/>
<mask id="path-9-inside-1_272_343" fill="white">
<path d="M45.0389 54.6875H45.9504V57.4219H45.0389V54.6875ZM24.0493 54.6875H24.9608V57.4219H24.0493V54.6875Z"/>
</mask>
<path d="M45.0389 54.6875H45.9504V57.4219H45.0389V54.6875ZM24.0493 54.6875H24.9608V57.4219H24.0493V54.6875Z" fill="#8FD4F5"/>
<path d="M45.0389 54.6875V53.6875H44.0389V54.6875H45.0389ZM45.9504 54.6875H46.9504V53.6875H45.9504V54.6875ZM45.9504 57.4219V58.4219H46.9504V57.4219H45.9504ZM45.0389 57.4219H44.0389V58.4219H45.0389V57.4219ZM24.0493 54.6875V53.6875H23.0493V54.6875H24.0493ZM24.9608 54.6875H25.9608V53.6875H24.9608V54.6875ZM24.9608 57.4219V58.4219H25.9608V57.4219H24.9608ZM24.0493 57.4219H23.0493V58.4219H24.0493V57.4219ZM45.0389 54.6875V55.6875H45.9504V54.6875V53.6875H45.0389V54.6875ZM45.9504 54.6875H44.9504V57.4219H45.9504H46.9504V54.6875H45.9504ZM45.9504 57.4219V56.4219H45.0389V57.4219V58.4219H45.9504V57.4219ZM45.0389 57.4219H46.0389V54.6875H45.0389H44.0389V57.4219H45.0389ZM24.0493 54.6875V55.6875H24.9608V54.6875V53.6875H24.0493V54.6875ZM24.9608 54.6875H23.9608V57.4219H24.9608H25.9608V54.6875H24.9608ZM24.9608 57.4219V56.4219H24.0493V57.4219V58.4219H24.9608V57.4219ZM24.0493 57.4219H25.0493V54.6875H24.0493H23.0493V57.4219H24.0493Z" fill="#2C2C2C" mask="url(#path-9-inside-1_272_343)"/>
<path d="M35.0002 14.3535C40.1016 14.3537 44.2522 18.5051 44.2522 23.6064V26.6611H25.7473V23.6064C25.7473 18.505 29.8988 14.3535 35.0002 14.3535Z" fill="#FFBE02" stroke="#2C2C2C"/>
<path d="M35.0002 24.9609C37.5042 24.961 40.5359 25.2238 42.9514 25.4883C44.1569 25.6203 45.205 25.7516 45.9514 25.8506C46.2606 25.8916 46.5179 25.9278 46.7131 25.9551V26.6611H23.2864V25.9551C23.4816 25.9278 23.7389 25.8916 24.0481 25.8506C24.7946 25.7516 25.8434 25.6203 27.0491 25.4883C29.4646 25.2238 32.4964 24.9609 35.0002 24.9609Z" fill="#FFBE02" stroke="#2C2C2C"/>
<path d="M35 14.3535C36.7791 14.3535 38.4414 14.8593 39.8535 15.7334L39.3252 24.1895H30.6758L30.1465 15.7334C31.5586 14.8592 33.2208 14.3536 35 14.3535Z" fill="#FE1300" stroke="#2C2C2C"/>
<path d="M43.1584 45.8379V51.5576C43.1584 52.3908 43.4098 53.2051 43.8792 53.8936L44.5256 54.8408V56.9219H25.4739V54.8408L26.1204 53.8936C26.5898 53.2052 26.8411 52.3908 26.8411 51.5576V45.8379L28.3928 45.4873V51.4971C28.3928 53.7867 30.2497 55.6436 32.5393 55.6436H37.4612C39.7507 55.6434 41.6067 53.7866 41.6067 51.4971V45.4873L43.1584 45.8379ZM35.0002 13.0781C36.2695 13.0782 37.4853 13.3064 38.6135 13.7188L38.0413 22.8809H31.9592L31.386 13.7188C32.5144 13.3063 33.7308 13.0781 35.0002 13.0781Z" fill="#FFBE02" stroke="#2C2C2C"/>
</svg>
