<svg width="70" height="70" viewBox="0 0 70 70" fill="none" xmlns="http://www.w3.org/2000/svg">
<rect x="0.5" y="0.5" width="69" height="69" rx="7.5" fill="#2C2C2C" stroke="#2C2C2C"/>
<path d="M54.9896 52.2151L51.6114 33.3203C51.5948 33.2271 51.558 33.1389 51.5037 33.0619C51.4494 32.9849 51.3789 32.9211 51.2974 32.8751L42.7946 28.0741C42.6862 28.0132 42.5625 27.9862 42.439 27.9964L43.9859 48.2551L43.9341 48.2786L54.1101 52.9132C54.2149 52.961 54.3306 52.9789 54.4447 52.9648C54.5588 52.9507 54.667 52.9052 54.7575 52.8333C54.848 52.7615 54.9175 52.666 54.9584 52.557C54.9994 52.4481 55.0101 52.3298 54.9896 52.2151ZM33.4996 32.6639L24.8034 28.0656C24.7007 28.0116 24.5852 27.9875 24.4698 27.9957C24.5 27.9939 24.5303 27.994 24.5603 27.9964L23.0134 48.2551L33.2412 52.9133C33.3225 52.9503 33.4106 52.9694 33.4996 52.9694V32.6639Z" fill="#006D34"/>
<path d="M24.5608 27.9963C24.4373 27.986 24.3136 28.013 24.2052 28.0738L15.7023 32.8749C15.6207 32.9209 15.5503 32.9847 15.496 33.0616C15.4417 33.1386 15.4049 33.2269 15.3882 33.32L12.0101 52.2148C11.9896 52.3296 12.0004 52.4478 12.0413 52.5568C12.0822 52.6658 12.1517 52.7613 12.2422 52.8331C12.3327 52.905 12.4408 52.9505 12.5549 52.9645C12.669 52.9786 12.7848 52.9608 12.8896 52.913L23.0101 48.3037L24.5608 27.9963ZM42.4394 27.9958C42.3546 28.0022 42.2719 28.0259 42.1963 28.0656L33.5001 32.6637V52.9693H33.5002C33.5893 52.9693 33.6774 52.9502 33.7586 52.9131L43.9864 48.255L42.4394 27.9958Z" fill="#006D34"/>
<path d="M14.364 39.0465L13.6777 42.8849L23.8394 37.4362L24.0753 34.3464L24.1145 33.834L14.364 39.0465Z" fill="#FFBE02"/>
<path d="M23.9314 36.2363L23.8399 37.4344L13.6782 42.8831L12.0101 52.2135C11.9896 52.3282 12.0004 52.4465 12.0413 52.5555C12.0822 52.6644 12.1517 52.76 12.2422 52.8318C12.3327 52.9037 12.4408 52.9491 12.5549 52.9632C12.669 52.9773 12.7848 52.9595 12.8896 52.9117L23.0101 48.3024L23.9314 36.2363Z" fill="#8FD4F5"/>
<path d="M33.5021 35.1971L24.1144 33.8344L23.8394 37.4365L33.4996 52.3299V46.9142L27.7351 37.6994L33.5021 38.3997V35.1971ZM50.628 32.4978L46.5434 30.1914L42.6765 31.1086L42.7249 31.7426L42.9159 34.2437L50.628 32.4978Z" fill="#F4D500"/>
<path d="M43.2589 38.7338L42.8927 33.938L42.6766 31.1074L33.5022 35.1959V38.3984L39.495 35.7528L43.2589 38.7338Z" fill="#FFBE02"/>
<path d="M54.9899 52.2161L54.1414 47.4699L42.9163 34.2441L43.2593 38.7355L54.7711 52.8224C54.8573 52.7502 54.923 52.6559 54.9615 52.5494C54.9999 52.4428 55.0098 52.3278 54.9899 52.2161Z" fill="#F4D500"/>
<path d="M33.5399 14C28.6719 14 24.7114 18.0173 24.7114 22.9553C24.7114 26.0099 26.1399 29.2893 28.9574 32.7025C31.0267 35.2094 33.0679 36.8218 33.1538 36.8893C33.2643 36.9761 33.4002 37.0232 33.54 37.0231C33.6798 37.0232 33.8157 36.9761 33.9263 36.8893C34.0121 36.8218 36.0533 35.2094 38.1227 32.7025C40.9401 29.2893 42.3686 26.01 42.3686 22.9553C42.3684 18.0173 38.408 14 33.5399 14ZM36.8095 22.9552C36.8095 24.7868 35.3456 26.2717 33.5399 26.2717C31.7343 26.2717 30.2704 24.7869 30.2704 22.9552C30.2704 21.1236 31.7343 19.6387 33.5399 19.6387C35.3456 19.6387 36.8095 21.1236 36.8095 22.9552Z" fill="#FD5001"/>
<path d="M33.5404 14C33.1545 14 32.7745 14.0254 32.4016 14.0743C36.7338 14.6428 40.0914 18.4087 40.0914 22.9553C40.0914 26.0099 38.6629 29.2893 35.8455 32.7025C34.5148 34.3146 33.1966 35.5559 32.4017 36.2553C32.843 36.6434 33.1236 36.8652 33.1542 36.8893C33.2648 36.9761 33.4006 37.0232 33.5404 37.0231C33.6803 37.0232 33.8161 36.9761 33.9267 36.8893C34.0125 36.8218 36.0538 35.2094 38.1231 32.7025C40.9405 29.2893 42.369 26.01 42.369 22.9553C42.3689 18.0173 38.4084 14 33.5404 14Z" fill="#FE1300"/>
<path d="M33.758 52.9117L37.5613 51.1795L33.4995 46.9121V52.9679H33.4996C33.5887 52.9679 33.6768 52.9488 33.758 52.9117Z" fill="#FFBE02"/>
<path d="M51.6115 33.3192C51.5949 33.226 51.5581 33.1378 51.5037 33.0608C51.4494 32.9838 51.379 32.9201 51.2975 32.8741L50.6281 32.4961L42.916 34.242L54.1411 47.4678L51.6115 33.3192ZM33.4997 52.9684C33.4998 52.9684 33.4998 52.9684 33.4997 52.9684V52.3282L23.8396 37.4349L23.0134 48.2541L33.2412 52.9123C33.3225 52.9493 33.4106 52.9684 33.4997 52.9684Z" fill="#055DF3"/>
</svg>
