<svg width="70" height="70" viewBox="0 0 70 70" fill="none" xmlns="http://www.w3.org/2000/svg">
<path d="M16 0.5H54C57.7854 0.5 60.5745 0.500713 62.7119 0.788086C64.8348 1.07354 66.2406 1.63315 67.3037 2.69629C68.3668 3.75943 68.9265 5.16519 69.2119 7.28809C69.4993 9.42554 69.5 12.2146 69.5 16V54C69.5 57.7854 69.4993 60.5745 69.2119 62.7119C68.9265 64.8348 68.3668 66.2406 67.3037 67.3037C66.2406 68.3668 64.8348 68.9265 62.7119 69.2119C60.5745 69.4993 57.7854 69.5 54 69.5H16C12.2146 69.5 9.42554 69.4993 7.28809 69.2119C5.16519 68.9265 3.75943 68.3668 2.69629 67.3037C1.63315 66.2406 1.07354 64.8348 0.788086 62.7119C0.500713 60.5745 0.5 57.7854 0.5 54V16C0.5 12.2146 0.500713 9.42554 0.788086 7.28809C1.07354 5.16519 1.63315 3.75943 2.69629 2.69629C3.75943 1.63315 5.16519 1.07354 7.28809 0.788086C9.42554 0.500713 12.2146 0.5 16 0.5Z" fill="#2C2C2C" stroke="#2C2C2C"/>
<path d="M13.0752 34.8105H17.3008C17.4052 34.8106 17.4902 34.8955 17.4902 35C17.49 35.1042 17.4051 35.1884 17.3008 35.1885H13.2646V51.3047H17.3008C17.4052 51.3047 17.4902 51.3897 17.4902 51.4941C17.4902 51.5986 17.4052 51.6835 17.3008 51.6836H13.0752C13.0251 51.6836 12.9768 51.6634 12.9414 51.6279C12.906 51.5925 12.8858 51.5443 12.8857 51.4941V35C12.8857 34.95 12.9061 34.9017 12.9414 34.8662C12.9768 34.8308 13.0251 34.8106 13.0752 34.8105ZM52.7002 18.3154H56.9248C56.9749 18.3154 57.0231 18.3357 57.0586 18.3711C57.094 18.4065 57.1142 18.4548 57.1143 18.5049V51.4941C57.1143 51.519 57.1091 51.5435 57.0996 51.5664C57.0901 51.5893 57.0762 51.6104 57.0586 51.6279C57.0411 51.6454 57.0199 51.6595 56.9971 51.6689C56.9742 51.6784 56.9495 51.6836 56.9248 51.6836H52.7002C52.5957 51.6836 52.5108 51.5986 52.5107 51.4941C52.5107 51.3897 52.5957 51.3047 52.7002 51.3047H56.7363V18.6943H52.7002C52.5957 18.6943 52.5107 18.6094 52.5107 18.5049C52.5108 18.4004 52.5957 18.3154 52.7002 18.3154Z" fill="#DFDFDF" stroke="#2C2C2C" stroke-width="1.03018"/>
<path d="M47.2698 12.1807C48.5408 12.1809 49.5715 13.2123 49.5715 14.4834V22.5264C49.5715 23.7975 48.5409 24.8279 47.2698 24.8281H44.967V12.1807H47.2698Z" fill="#FFBE02" stroke="#2C2C2C" stroke-width="1.03018"/>
<path d="M22.9351 12.1807H44.4526C45.7238 12.1807 46.7544 13.2121 46.7544 14.4834V22.5264C46.7544 23.7977 45.7239 24.8281 44.4526 24.8281H22.9351C21.6638 24.8281 20.6323 23.7977 20.6323 22.5264V14.4834C20.6323 13.2121 21.6638 12.1807 22.9351 12.1807Z" fill="#FFBE02" stroke="#2C2C2C" stroke-width="1.03018"/>
<path d="M46.5652 14.999C46.6153 14.9991 46.6635 15.0192 46.699 15.0547C46.7344 15.0901 46.7546 15.1384 46.7546 15.1885V16.9824L42.5779 19.0703L44.1052 14.999H46.5652Z" fill="#8FD4F5" stroke="#2C2C2C" stroke-width="1.03018"/>
<path d="M23.6384 14.999H43.7478C43.7979 14.999 43.8461 15.0194 43.8816 15.0547C43.917 15.0901 43.9372 15.1384 43.9373 15.1885V19.5303L23.449 16.8496V15.1885C23.449 15.1384 23.4692 15.0901 23.5046 15.0547C23.5401 15.0192 23.5883 14.9991 23.6384 14.999Z" fill="#8FD4F5" stroke="#2C2C2C" stroke-width="1.03018"/>
<path d="M46.7546 17.8154V21.8232C46.7546 21.8733 46.7343 21.9216 46.699 21.957C46.6635 21.9925 46.6153 22.0127 46.5652 22.0127H43.9949L42.3376 19.9648L44.655 17.8154H46.7546Z" fill="#8FD4F5" stroke="#2C2C2C" stroke-width="1.03018"/>
<path d="M43.9373 17.8154V21.8232C43.9373 21.8734 43.9171 21.9216 43.8816 21.957C43.8461 21.9925 43.7979 22.0127 43.7478 22.0127H23.6384C23.5883 22.0127 23.5401 21.9925 23.5046 21.957C23.4693 21.9216 23.449 21.8733 23.449 21.8232V17.8154H43.9373Z" fill="#2C2C2C" stroke="#2C2C2C" stroke-width="1.03018"/>
<path d="M47.2698 45.1709C48.5408 45.1712 49.5715 46.2026 49.5715 47.4736V55.5166C49.5715 56.7877 48.5409 57.8181 47.2698 57.8184H44.967V45.1709H47.2698Z" fill="#FA342D" stroke="#2C2C2C" stroke-width="1.03018"/>
<path d="M22.9351 45.1709H44.4526C45.7239 45.1709 46.7544 46.2023 46.7544 47.4736V48.0723L45.3872 51.2939L45.3013 51.4951L45.3872 51.6963L46.7544 54.917V55.5166C46.7544 56.7879 45.7239 57.8183 44.4526 57.8184H22.9351C21.6638 57.8184 20.6323 56.7879 20.6323 55.5166V47.4736C20.6323 46.2023 21.6638 45.1709 22.9351 45.1709Z" fill="#FD5001" stroke="#2C2C2C" stroke-width="1.03018"/>
<path d="M46.5652 47.9873C46.6153 47.9873 46.6635 48.0075 46.699 48.043C46.7344 48.0784 46.7546 48.1266 46.7546 48.1768V49.9707L42.5779 52.0586L44.1052 47.9873H46.5652Z" fill="#8FD4F5" stroke="#2C2C2C" stroke-width="1.03018"/>
<path d="M23.6384 47.9873H43.7478C43.7979 47.9873 43.8461 48.0076 43.8816 48.043C43.917 48.0784 43.9372 48.1266 43.9373 48.1768V52.5186L23.449 49.8379V48.1768C23.449 48.1266 23.4692 48.0784 23.5046 48.043C23.5401 48.0075 23.5883 47.9873 23.6384 47.9873Z" fill="#8FD4F5" stroke="#2C2C2C" stroke-width="1.03018"/>
<path d="M46.7546 50.8037V54.8115C46.7546 54.8616 46.7343 54.9099 46.699 54.9453C46.6635 54.9808 46.6153 55.0009 46.5652 55.001H43.9949L42.3376 52.9531L44.655 50.8037H46.7546Z" fill="#8FD4F5" stroke="#2C2C2C" stroke-width="1.03018"/>
<path d="M43.9373 50.8037V54.8115C43.9373 54.8617 43.9171 54.9098 43.8816 54.9453C43.8461 54.9808 43.798 55.001 43.7478 55.001H23.6384C23.5883 55.0009 23.5401 54.9808 23.5046 54.9453C23.4693 54.9099 23.449 54.8616 23.449 54.8115V50.8037H43.9373Z" fill="#2C2C2C" stroke="#2C2C2C" stroke-width="1.03018"/>
<path d="M47.2698 28.6768C48.5408 28.677 49.5715 29.7084 49.5715 30.9795V39.0225C49.5715 40.2936 48.5409 41.324 47.2698 41.3242H44.967V28.6768H47.2698Z" fill="#22217F" stroke="#2C2C2C" stroke-width="1.03018"/>
<path d="M22.9351 28.6768H44.4526C45.7239 28.6768 46.7544 29.7082 46.7544 30.9795V31.5781L45.3872 34.7998L45.3013 35.001L45.3872 35.2021L46.7544 38.4229V39.0225C46.7544 40.2937 45.7239 41.3242 44.4526 41.3242H22.9351C21.6638 41.3242 20.6323 40.2937 20.6323 39.0225V30.9795C20.6323 29.7082 21.6638 28.6768 22.9351 28.6768Z" fill="#22217F" stroke="#2C2C2C" stroke-width="1.03018"/>
<path d="M46.5652 31.4932C46.6153 31.4932 46.6635 31.5134 46.699 31.5488C46.7344 31.5843 46.7546 31.6325 46.7546 31.6826V33.4766L42.5779 35.5645L44.1052 31.4932H46.5652Z" fill="#8FD4F5" stroke="#2C2C2C" stroke-width="1.03018"/>
<path d="M23.6384 31.4932H43.7478C43.7979 31.4932 43.8461 31.5135 43.8816 31.5488C43.917 31.5843 43.9372 31.6325 43.9373 31.6826V36.0244L23.449 33.3438V31.6826C23.449 31.6325 23.4692 31.5843 23.5046 31.5488C23.5401 31.5134 23.5883 31.4932 23.6384 31.4932Z" fill="#8FD4F5" stroke="#2C2C2C" stroke-width="1.03018"/>
<path d="M46.7546 34.3096V38.3174C46.7546 38.3675 46.7343 38.4157 46.699 38.4512C46.6635 38.4866 46.6153 38.5068 46.5652 38.5068H43.9949L42.3376 36.459L44.655 34.3096H46.7546Z" fill="#8FD4F5" stroke="#2C2C2C" stroke-width="1.03018"/>
<path d="M43.9373 34.3096V38.3174C43.9373 38.3675 43.9171 38.4157 43.8816 38.4512C43.8461 38.4866 43.7979 38.5068 43.7478 38.5068H23.6384C23.5883 38.5068 23.5401 38.4866 23.5046 38.4512C23.4693 38.4157 23.449 38.3675 23.449 38.3174V34.3096H43.9373Z" fill="#2C2C2C" stroke="#2C2C2C" stroke-width="1.03018"/>
<path d="M13.075 42.3525C13.5683 42.3525 13.9684 42.7528 13.9685 43.2461C13.9685 43.7395 13.5683 44.1396 13.075 44.1396C12.5817 44.1395 12.1814 43.7394 12.1814 43.2461C12.1815 42.7529 12.5818 42.3527 13.075 42.3525Z" fill="#8FD4F5" stroke="#2C2C2C" stroke-width="1.03018"/>
<path d="M56.9246 42.3525C57.4179 42.3525 57.818 42.7528 57.8181 43.2461C57.8181 43.7395 57.4179 44.1396 56.9246 44.1396C56.4313 44.1395 56.031 43.7394 56.031 43.2461C56.0311 42.7529 56.4314 42.3527 56.9246 42.3525Z" fill="#8FD4F5" stroke="#2C2C2C" stroke-width="1.03018"/>
<path d="M56.9246 25.8584C57.4179 25.8584 57.818 26.2587 57.8181 26.752C57.8181 27.2453 57.4179 27.6455 56.9246 27.6455C56.4313 27.6454 56.031 27.2453 56.031 26.752C56.0311 26.2588 56.4314 25.8585 56.9246 25.8584Z" fill="#8FD4F5" stroke="#2C2C2C" stroke-width="1.03018"/>
</svg>
