<svg width="70" height="70" viewBox="0 0 70 70" fill="none" xmlns="http://www.w3.org/2000/svg">
<path d="M16 0.5H54C57.7854 0.5 60.5745 0.500713 62.7119 0.788086C64.8348 1.07354 66.2406 1.63315 67.3037 2.69629C68.3668 3.75943 68.9265 5.16519 69.2119 7.28809C69.4993 9.42554 69.5 12.2146 69.5 16V54C69.5 57.7854 69.4993 60.5745 69.2119 62.7119C68.9265 64.8348 68.3668 66.2406 67.3037 67.3037C66.2406 68.3668 64.8348 68.9265 62.7119 69.2119C60.5745 69.4993 57.7854 69.5 54 69.5H16C12.2146 69.5 9.42554 69.4993 7.28809 69.2119C5.16519 68.9265 3.75943 68.3668 2.69629 67.3037C1.63315 66.2406 1.07354 64.8348 0.788086 62.7119C0.500713 60.5745 0.5 57.7854 0.5 54V16C0.5 12.2146 0.500713 9.42554 0.788086 7.28809C1.07354 5.16519 1.63315 3.75943 2.69629 2.69629C3.75943 1.63315 5.16519 1.07354 7.28809 0.788086C9.42554 0.500713 12.2146 0.5 16 0.5Z" fill="#2C2C2C" stroke="#2C2C2C"/>
<path d="M20.417 21.8887H34.5156C34.5073 22.0432 34.5 22.2014 34.5 22.3613L34.5049 22.7002C34.69 29.6835 40.3164 35.3101 47.2998 35.4951L47.6387 35.5C50.0673 35.499 52.4393 34.8193 54.4932 33.5508L54.3662 34.5684C54.0934 36.7511 52.2377 38.3889 50.0381 38.3887H23.334C23.2239 38.3886 23.1169 38.3497 23.0322 38.2793C22.9478 38.2091 22.8904 38.1118 22.8701 38.0039V38.0029L19.9531 22.4473L19.9453 22.3613C19.9452 22.1329 20.1071 21.9425 20.3223 21.8984L20.417 21.8887Z" fill="#FFBE02" stroke="#2C2C2C"/>
<path d="M47.6392 49.1113C50.0476 49.1115 51.9995 51.0642 51.9995 53.4727C51.9994 55.881 50.0475 57.8329 47.6392 57.833C45.2307 57.833 43.278 55.8811 43.2778 53.4727C43.2778 51.0641 45.2306 49.1113 47.6392 49.1113Z" fill="#1C1B19" stroke="#2C2C2C"/>
<path d="M28.1946 49.1113C30.603 49.1115 32.5549 51.0642 32.5549 53.4727C32.5548 55.881 30.6029 57.8329 28.1946 57.833C25.7861 57.833 23.8334 55.8811 23.8333 53.4727C23.8333 51.0641 25.786 49.1113 28.1946 49.1113Z" fill="#1C1B19" stroke="#2C2C2C"/>
<path d="M12.6394 16.0566H18.4724C18.5813 16.0566 18.6869 16.0943 18.7712 16.1631C18.8548 16.2313 18.9121 16.3261 18.9343 16.4316V16.4326L23.8308 40.9131V40.9141C24.3368 43.416 26.5331 45.2173 29.0857 45.2236H51.5281C51.7887 45.2238 51.9996 45.4347 51.9998 45.6953C51.9998 45.956 51.7888 46.1678 51.5281 46.168H29.0876C26.1778 46.1617 23.6615 44.173 22.9656 41.3721L22.9041 41.0986L18.1658 17.4033L18.0847 17.001H12.6394C12.3787 17.001 12.167 16.7899 12.1667 16.5293C12.1667 16.2685 12.3786 16.0566 12.6394 16.0566Z" fill="#1C1B19" stroke="#2C2C2C"/>
<path d="M47.6389 12.166C53.2691 12.166 57.8332 16.7302 57.8333 22.3604C57.8333 27.9906 53.2691 32.5547 47.6389 32.5547C42.0087 32.5546 37.4446 27.9905 37.4446 22.3604C37.4446 16.7302 42.0088 12.1661 47.6389 12.166Z" fill="#006D34" stroke="#2C2C2C"/>
<path d="M53.1433 18.1328C53.3245 17.9452 53.6236 17.9399 53.8113 18.1211C53.9986 18.302 54.004 18.6003 53.823 18.7881C53.8192 18.792 53.8152 18.796 53.8113 18.7998L53.8054 18.8066L46.0271 26.584C45.9387 26.6719 45.8188 26.7217 45.6941 26.7217C45.6321 26.7218 45.5698 26.7092 45.5125 26.6855C45.4553 26.6619 45.4029 26.6277 45.3591 26.584H45.3601L41.4763 22.7012H41.4773C41.2961 22.5136 41.3014 22.2144 41.489 22.0332C41.672 21.8569 41.9615 21.857 42.1443 22.0332L45.3416 25.2285L45.6951 25.5811L46.0476 25.2275L53.1375 18.1387L53.1433 18.1328Z" fill="#FAFAFA" stroke="#2C2C2C"/>
</svg>
