<svg width="70" height="70" viewBox="0 0 70 70" fill="none" xmlns="http://www.w3.org/2000/svg">
<path d="M16 0.5H54C57.7854 0.5 60.5745 0.500713 62.7119 0.788086C64.8348 1.07354 66.2406 1.63315 67.3037 2.69629C68.3668 3.75943 68.9265 5.16519 69.2119 7.28809C69.4993 9.42554 69.5 12.2146 69.5 16V54C69.5 57.7854 69.4993 60.5745 69.2119 62.7119C68.9265 64.8348 68.3668 66.2406 67.3037 67.3037C66.2406 68.3668 64.8348 68.9265 62.7119 69.2119C60.5745 69.4993 57.7854 69.5 54 69.5H16C12.2146 69.5 9.42554 69.4993 7.28809 69.2119C5.16519 68.9265 3.75943 68.3668 2.69629 67.3037C1.63315 66.2406 1.07354 64.8348 0.788086 62.7119C0.500713 60.5745 0.5 57.7854 0.5 54V16C0.5 12.2146 0.500713 9.42554 0.788086 7.28809C1.07354 5.16519 1.63315 3.75943 2.69629 2.69629C3.75943 1.63315 5.16519 1.07354 7.28809 0.788086C9.42554 0.500713 12.2146 0.5 16 0.5Z" fill="#2C2C2C" stroke="#2C2C2C"/>
<path d="M57.1661 20.8402H48.1463V11.8203H22.8357V58.1814H57.1661V20.8402Z" fill="#1E1E1E"/>
<path d="M48.1465 20.8402H57.1664L48.1465 11.8203V20.8402Z" fill="#1E1E1E"/>
<mask id="path-4-inside-1_272_323" fill="white">
<path d="M34.5419 27.8051H32.8899C32.7738 27.0738 32.5814 26.3568 32.3158 25.6657L33.7613 24.8253C34.5873 24.3545 33.4288 23.2084 33.0571 22.3907C32.5719 21.5647 31.4692 22.7004 30.7857 23.0102C30.32 22.4293 29.7924 21.9009 29.2121 21.4346C29.4806 20.8006 30.6576 19.6298 29.8089 19.1486C28.9829 18.7666 27.8596 17.6247 27.3764 18.4548L26.5504 19.8838C25.8487 19.6131 25.1196 19.4199 24.3759 19.3076V17.6556C24.3759 16.714 22.8354 17.1353 21.9124 17.0485C20.9604 17.0485 21.3796 18.5353 21.2929 19.32C20.5619 19.4267 19.8446 19.6123 19.1536 19.8734C18.7013 19.2684 18.3131 17.7527 17.4727 18.2215C16.7251 18.7583 15.1805 19.1528 15.6493 20.0035L16.4877 21.4304C15.9026 21.8908 15.375 22.4198 14.9162 23.006L13.4707 22.1656C12.6447 21.6948 12.2317 23.2518 11.7093 23.991C11.2178 24.8026 12.7769 25.23 13.3613 25.6699C13.0893 26.359 12.896 27.0767 12.7852 27.8092H11.1394C10.1833 27.8236 10.6066 29.3703 10.5199 30.2872C10.5199 31.2247 12.0583 30.8096 12.7913 30.8963C12.8996 31.6361 13.0929 32.3609 13.3675 33.0563C12.781 33.49 11.2199 33.8823 11.7155 34.7083L12.6365 36.3231C13.1321 37.114 14.2306 35.9948 14.908 35.7036C15.373 36.2899 15.8999 36.8244 16.4794 37.2978L15.641 38.7227C15.1723 39.5486 16.721 39.9616 17.4644 40.4841C18.3234 40.9466 18.6828 39.4619 19.1453 38.8321C19.833 39.1068 20.5513 39.2974 21.2846 39.4V41.052C21.2846 42.0225 22.7983 41.593 23.7482 41.6715C24.7043 41.6715 24.2809 40.1207 24.3677 39.3855C25.1044 39.2829 25.8261 39.0923 26.5173 38.8176L27.3433 40.2631C27.8348 41.0582 28.954 39.9265 29.7759 39.5507C30.6122 39.0861 29.4599 37.94 29.1791 37.2792C29.7538 36.7999 30.2808 36.266 30.7526 35.6851C31.4341 35.9824 32.5326 37.1037 33.0241 36.3046C33.3937 35.4786 34.546 34.3201 33.7283 33.8493L32.2828 33.0233C32.551 32.3259 32.7434 31.6018 32.8568 30.8633C33.6209 30.7766 35.1283 31.1916 35.1283 30.2541C35.0726 29.3868 35.4856 27.8133 34.5419 27.8051Z"/>
</mask>
<path d="M34.5419 27.8051H32.8899C32.7738 27.0738 32.5814 26.3568 32.3158 25.6657L33.7613 24.8253C34.5873 24.3545 33.4288 23.2084 33.0571 22.3907C32.5719 21.5647 31.4692 22.7004 30.7857 23.0102C30.32 22.4293 29.7924 21.9009 29.2121 21.4346C29.4806 20.8006 30.6576 19.6298 29.8089 19.1486C28.9829 18.7666 27.8596 17.6247 27.3764 18.4548L26.5504 19.8838C25.8487 19.6131 25.1196 19.4199 24.3759 19.3076V17.6556C24.3759 16.714 22.8354 17.1353 21.9124 17.0485C20.9604 17.0485 21.3796 18.5353 21.2929 19.32C20.5619 19.4267 19.8446 19.6123 19.1536 19.8734C18.7013 19.2684 18.3131 17.7527 17.4727 18.2215C16.7251 18.7583 15.1805 19.1528 15.6493 20.0035L16.4877 21.4304C15.9026 21.8908 15.375 22.4198 14.9162 23.006L13.4707 22.1656C12.6447 21.6948 12.2317 23.2518 11.7093 23.991C11.2178 24.8026 12.7769 25.23 13.3613 25.6699C13.0893 26.359 12.896 27.0767 12.7852 27.8092H11.1394C10.1833 27.8236 10.6066 29.3703 10.5199 30.2872C10.5199 31.2247 12.0583 30.8096 12.7913 30.8963C12.8996 31.6361 13.0929 32.3609 13.3675 33.0563C12.781 33.49 11.2199 33.8823 11.7155 34.7083L12.6365 36.3231C13.1321 37.114 14.2306 35.9948 14.908 35.7036C15.373 36.2899 15.8999 36.8244 16.4794 37.2978L15.641 38.7227C15.1723 39.5486 16.721 39.9616 17.4644 40.4841C18.3234 40.9466 18.6828 39.4619 19.1453 38.8321C19.833 39.1068 20.5513 39.2974 21.2846 39.4V41.052C21.2846 42.0225 22.7983 41.593 23.7482 41.6715C24.7043 41.6715 24.2809 40.1207 24.3677 39.3855C25.1044 39.2829 25.8261 39.0923 26.5173 38.8176L27.3433 40.2631C27.8348 41.0582 28.954 39.9265 29.7759 39.5507C30.6122 39.0861 29.4599 37.94 29.1791 37.2792C29.7538 36.7999 30.2808 36.266 30.7526 35.6851C31.4341 35.9824 32.5326 37.1037 33.0241 36.3046C33.3937 35.4786 34.546 34.3201 33.7283 33.8493L32.2828 33.0233C32.551 32.3259 32.7434 31.6018 32.8568 30.8633C33.6209 30.7766 35.1283 31.1916 35.1283 30.2541C35.0726 29.3868 35.4856 27.8133 34.5419 27.8051Z" fill="#055DF3"/>
<path d="M34.5419 27.8051L34.7402 5.15006L34.641 5.14919H34.5419V27.8051ZM32.8899 27.8051L10.5141 31.3565L13.5463 50.4609H32.8899V27.8051ZM32.3158 25.6657L20.928 6.07985L4.24492 15.7799L11.168 33.7934L32.3158 25.6657ZM33.7613 24.8253L22.542 5.14238L22.4576 5.19053L22.3735 5.2394L33.7613 24.8253ZM33.0571 22.3907L53.6823 13.0156L53.1918 11.9364L52.5913 10.9144L33.0571 22.3907ZM30.7857 23.0102L13.1075 37.1796L24.1115 50.9084L40.1372 43.646L30.7857 23.0102ZM29.2121 21.4346L8.34963 12.6003L1.67289 28.3677L15.0195 39.0941L29.2121 21.4346ZM29.8089 19.1486L40.9822 -0.560421L40.1684 -1.02176L39.3193 -1.41445L29.8089 19.1486ZM27.3764 18.4548L7.7961 7.05734L7.77881 7.08703L7.76162 7.11678L27.3764 18.4548ZM26.5504 19.8838L18.3966 41.0215L36.4705 47.9934L46.1651 31.2218L26.5504 19.8838ZM24.3759 19.3076H1.72006V38.7995L20.9935 41.7096L24.3759 19.3076ZM21.9124 17.0485L24.0318 -5.50798L22.9744 -5.60733H21.9124V17.0485ZM21.2929 19.32L24.5643 41.7385L41.8883 39.2105L43.8116 21.8089L21.2929 19.32ZM19.1536 19.8734L1.0066 33.4372L11.2145 47.0944L27.1638 41.066L19.1536 19.8734ZM17.4727 18.2215L6.437 -1.56497L5.30704 -0.934744L4.25617 -0.179977L17.4727 18.2215ZM15.6493 20.0035L-4.19401 30.9366L-4.04296 31.2108L-3.88439 31.4806L15.6493 20.0035ZM16.4877 21.4304L30.4977 39.2351L46.0402 27.0052L36.0214 9.95334L16.4877 21.4304ZM14.9162 23.006L3.52843 42.5919L20.5923 52.5133L32.7576 36.9693L14.9162 23.006ZM13.4707 22.1656L24.8585 2.5797L24.7745 2.53082L24.69 2.48268L13.4707 22.1656ZM11.7093 23.991L-6.79266 10.9156L-7.25498 11.5698L-7.66993 12.255L11.7093 23.991ZM13.3613 25.6699L34.4354 33.9868L40.7677 17.9414L26.9855 7.56822L13.3613 25.6699ZM12.7852 27.8092V50.4651H32.2694L35.1858 31.2003L12.7852 27.8092ZM11.1394 27.8092V5.15332H10.9681L10.7969 5.15591L11.1394 27.8092ZM10.5199 30.2872L-12.0353 28.1536L-12.136 29.218V30.2872H10.5199ZM12.7913 30.8963L35.2087 27.6174L32.6958 10.4374L15.4532 8.39739L12.7913 30.8963ZM13.3675 33.0563L26.8375 51.273L40.8327 40.9244L34.4399 24.7352L13.3675 33.0563ZM11.7155 34.7083L31.3956 23.4841L31.2715 23.2667L31.1427 23.052L11.7155 34.7083ZM12.6365 36.3231L-7.04362 47.5473L-6.81095 47.9553L-6.56157 48.3532L12.6365 36.3231ZM14.908 35.7036L32.6574 21.6236L21.885 8.04385L5.9604 14.8895L14.908 35.7036ZM16.4794 37.2978L36.0058 48.7873L45.8581 32.0432L30.8127 19.7523L16.4794 37.2978ZM15.641 38.7227L-3.88539 27.2332L-3.97541 27.3862L-4.06304 27.5406L15.641 38.7227ZM17.4644 40.4841L4.43759 59.0203L5.53851 59.794L6.72327 60.4319L17.4644 40.4841ZM19.1453 38.8321L27.5488 17.7924L11.2646 11.2883L0.885026 25.4213L19.1453 38.8321ZM21.2846 39.4H43.9405V19.6915L24.4219 16.9624L21.2846 39.4ZM23.7482 41.6715L21.883 64.2504L22.814 64.3273H23.7482V41.6715ZM24.3677 39.3855L21.2433 16.9461L3.91741 19.3585L1.86784 36.731L24.3677 39.3855ZM26.5173 38.8176L46.1881 27.5772L36.4301 10.5005L18.1519 17.7628L26.5173 38.8176ZM27.3433 40.2631L7.67251 51.5036L7.86662 51.8433L8.07235 52.1761L27.3433 40.2631ZM29.7759 39.5507L39.1977 60.1545L40.0038 59.7859L40.7785 59.3555L29.7759 39.5507ZM29.1791 37.2792L14.6673 19.8811L1.74769 30.6573L8.32819 46.1409L29.1791 37.2792ZM30.7526 35.6851L39.8137 14.9201L24.0264 8.03107L13.1667 21.4013L30.7526 35.6851ZM33.0241 36.3046L52.3226 48.1729L53.0986 46.9109L53.7038 45.5587L33.0241 36.3046ZM33.7283 33.8493L45.0327 14.2152L45.0008 14.1968L44.9687 14.1785L33.7283 33.8493ZM32.2828 33.0233L11.1369 24.8907L4.15509 43.0442L21.0423 52.6941L32.2828 33.0233ZM32.8568 30.8633L30.3015 8.35201L13.0925 10.3055L10.4635 27.4243L32.8568 30.8633ZM35.1283 30.2541H57.7842V29.5267L57.7375 28.8007L35.1283 30.2541ZM34.5419 27.8051V5.14919H32.8899V27.8051V50.4609H34.5419V27.8051ZM32.8899 27.8051L55.2657 24.2536C54.9013 21.9582 54.2973 19.7074 53.4636 17.5381L32.3158 25.6657L11.168 33.7934C10.8655 33.0062 10.6463 32.1895 10.5141 31.3565L32.8899 27.8051ZM32.3158 25.6657L43.7036 45.2516L45.1491 44.4112L33.7613 24.8253L22.3735 5.2394L20.928 6.07985L32.3158 25.6657ZM33.7613 24.8253L44.9806 44.5082C47.8401 42.8783 51.0347 40.2481 53.427 36.2482C55.8421 32.2102 56.6744 28.0548 56.7069 24.573C56.7628 18.5853 54.4534 14.2362 53.9575 13.2828C53.5324 12.4656 53.1387 11.8166 52.9173 11.4595C52.7982 11.2674 52.6944 11.1045 52.6261 10.9979C52.5737 10.9162 52.4889 10.7848 52.4885 10.7842C52.1857 10.3139 52.9773 11.4645 53.6823 13.0156L33.0571 22.3907L12.432 31.7657C12.9507 32.9068 13.461 33.7954 13.7485 34.2796C14.0428 34.7752 14.3117 35.1912 14.3917 35.3155C14.7863 35.9283 14.2429 35.1232 13.7592 34.1933C13.4961 33.6876 11.3447 29.7643 11.3971 24.1495C11.4279 20.8541 12.2181 16.8719 14.5399 12.9899C16.8389 9.14599 19.889 6.6546 22.542 5.14238L33.7613 24.8253ZM33.0571 22.3907L52.5913 10.9144C50.9848 8.17988 48.4402 5.13304 44.6199 2.80983C40.7448 0.453304 36.705 -0.459269 33.1949 -0.552456C27.0822 -0.714739 22.6378 1.60452 21.5403 2.17546C20.6708 2.62777 19.9839 3.04951 19.5943 3.29513C19.2236 3.52883 18.8731 3.76288 18.8519 3.77686C18.2259 4.19144 19.6263 3.19357 21.4341 2.37435L30.7857 23.0102L40.1372 43.646C41.4382 43.0564 42.4281 42.4653 42.8888 42.1832C43.376 41.8849 43.7936 41.6064 43.8694 41.5562C44.3943 41.2086 43.5236 41.8157 42.4512 42.3736C41.7754 42.7251 37.7404 44.8959 31.9923 44.7433C28.6646 44.655 24.7959 43.7868 21.0766 41.525C17.4121 39.2966 15.0082 36.395 13.523 33.867L33.0571 22.3907ZM30.7857 23.0102L48.4638 8.84074C46.9668 6.97309 45.2704 5.27446 43.4047 3.77506L29.2121 21.4346L15.0195 39.0941C14.3144 38.5274 13.6733 37.8854 13.1075 37.1796L30.7857 23.0102ZM29.2121 21.4346L50.0746 30.2689C49.1856 32.3683 48.0154 34.0183 48.5061 33.2671C48.5185 33.2481 48.7511 32.895 48.9831 32.5218C49.2275 32.1287 49.6422 31.4433 50.0864 30.5777C50.6414 29.4962 52.9151 25.0865 52.7599 19.0384C52.6705 15.557 51.7731 11.4734 49.364 7.53555C46.9782 3.63589 43.8291 1.05354 40.9822 -0.560421L29.8089 19.1486L18.6357 38.8577C16.0009 37.364 13.0007 34.9235 10.7119 31.1824C8.39985 27.4032 7.54759 23.4949 7.46305 20.2009C7.31745 14.5275 9.43925 10.5403 9.77249 9.89093C10.3167 8.83033 10.9086 7.96958 10.5698 8.48815C10.5244 8.55777 10.2344 8.99813 9.92632 9.51121C9.64969 9.97191 8.98518 11.0994 8.34963 12.6003L29.2121 21.4346ZM29.8089 19.1486L39.3193 -1.41445C40.8009 -0.729219 41.9068 0.0319557 41.4338 -0.273321C41.4223 -0.280756 41.0736 -0.507656 40.7287 -0.721172C40.3601 -0.949322 39.6953 -1.35152 38.8571 -1.78424C37.8454 -2.30653 33.4422 -4.61267 27.3927 -4.49209C23.8935 -4.42235 19.8085 -3.54056 15.8696 -1.16063C11.9817 1.18843 9.40827 4.28771 7.7961 7.05734L27.3764 18.4548L46.9566 29.8523C45.4652 32.4144 43.0326 35.3677 39.3019 37.6218C35.5201 39.9068 31.6087 40.7446 28.2956 40.8106C22.6185 40.9238 18.6382 38.7714 18.071 38.4786C17.095 37.9747 16.2701 37.4154 16.8628 37.798C16.9772 37.8718 17.3837 38.1353 17.8646 38.4226C18.3381 38.7056 19.1976 39.2026 20.2985 39.7117L29.8089 19.1486ZM27.3764 18.4548L7.76162 7.11678L6.93562 8.54575L26.5504 19.8838L46.1651 31.2218L46.9911 29.7928L27.3764 18.4548ZM26.5504 19.8838L34.7041 -1.25399C32.4628 -2.11856 30.1337 -2.73567 27.7583 -3.09432L24.3759 19.3076L20.9935 41.7096C20.1054 41.5755 19.2346 41.3448 18.3966 41.0215L26.5504 19.8838ZM24.3759 19.3076H47.0318V17.6556H24.3759H1.72006V19.3076H24.3759ZM24.3759 17.6556H47.0318C47.0318 14.3952 46.3422 10.3579 44.0951 6.32837C41.8246 2.25684 38.674 -0.532438 35.6845 -2.30682C30.5371 -5.36198 25.62 -5.54991 24.5408 -5.6C23.6214 -5.64267 22.8633 -5.62805 22.4455 -5.61603C22.2206 -5.60955 22.0282 -5.6016 21.9023 -5.59609C21.8053 -5.59185 21.6502 -5.58458 21.6482 -5.58448C21.1267 -5.56055 22.4299 -5.65849 24.0318 -5.50798L21.9124 17.0485L19.793 39.6051C21.8564 39.7989 23.6983 39.6809 23.7253 39.6796C24.4568 39.6461 23.4867 39.7116 22.4398 39.663C21.8612 39.6361 17.3868 39.5249 12.5571 36.6583C9.72648 34.9782 6.70345 32.3111 4.5208 28.3972C2.36154 24.5251 1.72006 20.6807 1.72006 17.6556H24.3759ZM21.9124 17.0485V-5.60733C18.8108 -5.60733 14.9441 -4.98553 11.0287 -2.91594C7.04184 -0.808586 4.17691 2.18183 2.27933 5.18171C-1.0232 10.4027 -1.28053 15.4639 -1.34557 16.6843C-1.39752 17.6589 -1.38332 18.4599 -1.37056 18.9053C-1.3637 19.1445 -1.35503 19.3473 -1.34896 19.4802C-1.34384 19.5921 -1.33674 19.7339 -1.33634 19.7421C-1.30462 20.3899 -1.43881 18.758 -1.22584 16.8311L21.2929 19.32L43.8116 21.8089C43.9637 20.433 43.9662 19.3112 43.9598 18.7422C43.9532 18.1516 43.9269 17.6426 43.9212 17.526C43.8874 16.8365 43.9651 17.91 43.902 19.0958C43.8619 19.8464 43.6837 24.4869 40.5731 29.4045C38.7714 32.2527 36.0306 35.1209 32.2034 37.1439C28.4476 39.1291 24.776 39.7044 21.9124 39.7044V17.0485ZM21.2929 19.32L18.0215 -3.09842C15.6713 -2.75546 13.3651 -2.15888 11.1433 -1.31912L19.1536 19.8734L27.1638 41.066C26.3241 41.3834 25.4525 41.6089 24.5643 41.7385L21.2929 19.32ZM19.1536 19.8734L37.3005 6.30967C38.5366 7.96335 39.2896 9.56166 38.9639 8.92866C38.9634 8.92767 38.7706 8.54912 38.569 8.17663C38.3535 7.77854 37.9625 7.07534 37.4266 6.25503C36.7364 5.19829 34.0097 1.02537 28.6318 -1.82352C25.5577 -3.45203 21.6593 -4.62411 17.2172 -4.51615C12.8382 -4.40972 9.17261 -3.09073 6.437 -1.56497L17.4727 18.2215L28.5083 38.0079C25.9828 39.4164 22.5132 40.6803 18.3181 40.7822C14.0599 40.8857 10.3332 39.7599 7.42073 38.217C2.36613 35.5394 -0.0776138 31.6953 -0.509235 31.0345C-1.16483 30.0308 -1.63572 29.0602 -1.32726 29.6596C-1.27779 29.7558 -1.04117 30.2191 -0.74593 30.7424C-0.46557 31.2393 0.128926 32.263 1.0066 33.4372L19.1536 19.8734ZM17.4727 18.2215L4.25617 -0.179977C5.62005 -1.15956 6.85458 -1.75336 6.37916 -1.5069C6.378 -1.50629 6.23941 -1.43462 6.15097 -1.38852C6.03699 -1.3291 5.86255 -1.2376 5.65955 -1.12772C5.28218 -0.923473 4.60186 -0.546503 3.80817 -0.0335979C2.82581 0.601231 -1.33356 3.26443 -4.22946 8.54038C-5.89631 11.5772 -7.148 15.4841 -7.09171 19.9879C-7.03614 24.4338 -5.7231 28.1613 -4.19401 30.9366L15.6493 20.0035L35.4926 9.07046C36.9045 11.633 38.1633 15.1621 38.2165 19.4216C38.2705 23.7388 37.0684 27.4712 35.4921 30.343C32.7773 35.2889 28.9629 37.6604 28.4016 38.0232C27.4849 38.6155 26.5772 39.0608 27.2338 38.7204C27.2436 38.7154 28.9515 37.8709 30.6892 36.6229L17.4727 18.2215ZM15.6493 20.0035L-3.88439 31.4806L-3.04601 32.9075L16.4877 21.4304L36.0214 9.95334L35.183 8.52644L15.6493 20.0035ZM16.4877 21.4304L2.47763 3.62575C0.466209 5.20848 -1.34773 7.02719 -2.92519 9.04277L14.9162 23.006L32.7576 36.9693C32.0978 37.8124 31.3391 38.5731 30.4977 39.2351L16.4877 21.4304ZM14.9162 23.006L26.304 3.42015L24.8585 2.5797L13.4707 22.1656L2.08294 41.7515L3.52843 42.5919L14.9162 23.006ZM13.4707 22.1656L24.69 2.48268C21.8498 0.86376 18.0167 -0.523726 13.4373 -0.57588C8.81665 -0.628508 4.8606 0.695141 1.84982 2.38137C-3.35316 5.29537 -5.97595 9.4313 -6.58145 10.3732C-7.08503 11.1565 -7.45641 11.8284 -7.66076 12.2072C-7.85211 12.5619 -8.03981 12.9292 -8.04726 12.9437C-8.30801 13.4493 -7.73034 12.2425 -6.79266 10.9156L11.7093 23.991L30.2112 37.0664C30.9093 36.0786 31.4048 35.2219 31.6716 34.7453C31.943 34.2602 32.1628 33.832 32.2248 33.7118C32.5442 33.0925 32.1166 33.9694 31.5338 34.8759C31.2001 35.3949 28.8681 39.1837 23.9912 41.9151C21.1434 43.51 17.3593 44.7835 12.9213 44.7329C8.52466 44.6828 4.88517 43.3497 2.25147 41.8485L13.4707 22.1656ZM11.7093 23.991L-7.66993 12.255C-9.36189 15.0489 -10.8594 18.8572 -11.0259 23.4593C-11.1941 28.111 -9.94966 32.1358 -8.29827 35.2222C-5.4403 40.5637 -1.27179 43.2728 -0.294454 43.9138C0.506811 44.4394 1.19439 44.8254 1.58853 45.0407C1.96077 45.2441 2.33144 45.4349 2.34507 45.4419C3.0337 45.7996 1.40116 45.024 -0.262924 43.7715L13.3613 25.6699L26.9855 7.56822C25.7939 6.67136 24.7547 6.06748 24.2814 5.79894C23.7721 5.51002 23.3172 5.27561 23.2299 5.23029C22.66 4.93427 23.5862 5.38829 24.5581 6.02582C25.1341 6.40361 28.9685 8.8262 31.6541 13.8455C33.2193 16.7708 34.418 20.6257 34.2563 25.097C34.0963 29.5186 32.6576 33.1361 31.0885 35.727L11.7093 23.991ZM13.3613 25.6699L-7.71282 17.353C-8.61101 19.6289 -9.24928 21.9989 -9.6155 24.4181L12.7852 27.8092L35.1858 31.2003C35.0414 32.1544 34.7896 33.0891 34.4354 33.9868L13.3613 25.6699ZM12.7852 27.8092V5.15332H11.1394V27.8092V50.4651H12.7852V27.8092ZM11.1394 27.8092L10.7969 5.15591C7.55433 5.20493 3.59233 5.9458 -0.342528 8.17943C-4.31447 10.4341 -7.05415 13.5267 -8.81283 16.4791C-11.859 21.5929 -12.0702 26.4744 -12.1254 27.6068C-12.1708 28.5374 -12.1571 29.305 -12.1453 29.7323C-12.1343 30.1291 -12.1137 30.5438 -12.1134 30.5513C-12.0884 31.0958 -12.1883 29.7711 -12.0353 28.1536L10.5199 30.2872L33.075 32.4208C33.2714 30.3448 33.1511 28.483 33.151 28.4791C33.1182 27.7626 33.1848 28.7422 33.1326 29.8128C33.1019 30.4421 32.9696 34.8769 30.1156 39.668C28.4531 42.4591 25.8379 45.4212 22.0261 47.585C18.2514 49.7277 14.4854 50.4171 11.4818 50.4625L11.1394 27.8092ZM10.5199 30.2872H-12.136C-12.136 33.562 -11.4407 37.5672 -9.23203 41.5553C-7.00438 45.5776 -3.91482 48.3581 -0.9643 50.1449C4.15564 53.2455 9.05764 53.4777 10.2279 53.5373C11.1764 53.5857 11.9574 53.5719 12.3989 53.5593C12.8122 53.5474 13.2272 53.5256 13.2313 53.5254C13.9678 53.4894 12.1897 53.639 10.1295 53.3953L12.7913 30.8963L15.4532 8.39739C13.9851 8.2237 12.7927 8.22316 12.2374 8.22919C11.6443 8.23563 11.1304 8.26223 11.023 8.26746C10.3635 8.29965 11.39 8.22602 12.5335 8.28428C13.2275 8.31964 17.6991 8.47437 22.5077 11.3864C25.3025 13.079 28.2662 15.7374 30.4068 19.6027C32.5285 23.4337 33.1757 27.2467 33.1757 30.2872H10.5199ZM12.7913 30.8963L-9.62599 34.1753C-9.26519 36.642 -8.62058 39.0587 -7.70497 41.3774L13.3675 33.0563L34.4399 24.7352C34.8063 25.6631 35.0643 26.6303 35.2087 27.6174L12.7913 30.8963ZM13.3675 33.0563L-0.102577 14.8397C1.63752 13.553 3.34004 12.7769 2.65079 13.1219C2.64916 13.1228 2.27014 13.3106 1.89703 13.5071C1.49906 13.7168 0.795506 14.0976 -0.0260582 14.6203C-1.02379 15.2551 -5.33732 17.972 -8.27483 23.4384C-9.97382 26.6 -11.2025 30.6664 -11.0179 35.3166C-10.8365 39.8876 -9.34555 43.6417 -7.71176 46.3647L11.7155 34.7083L31.1427 23.052C32.6526 25.5685 34.0839 29.1296 34.2582 33.5193C34.4356 37.9883 33.2521 41.8851 31.6389 44.887C28.8731 50.034 24.8936 52.4708 24.2975 52.8501C23.2976 53.4862 22.3339 53.9408 22.9337 53.6405C23.0276 53.5935 23.499 53.3594 24.0305 53.067C24.5244 52.7951 25.6021 52.1865 26.8375 51.273L13.3675 33.0563ZM11.7155 34.7083L-7.96461 45.9325L-7.04362 47.5473L12.6365 36.3231L32.3166 25.099L31.3956 23.4841L11.7155 34.7083ZM12.6365 36.3231L-6.56157 48.3532C-4.82482 51.1248 -2.15592 54.0799 1.70373 56.2607C5.58337 58.4527 9.53684 59.2239 12.8898 59.2558C18.7528 59.3115 23.0142 57.1093 24.0919 56.5533C24.9329 56.1193 25.5982 55.7163 25.9709 55.485C26.17 55.3614 26.3375 55.2542 26.447 55.1837C26.537 55.1258 26.6573 55.0476 26.6599 55.0459C27.2601 54.6569 25.7864 55.6878 23.8555 56.5178L14.908 35.7036L5.9604 14.8895C4.59353 15.4771 3.55435 16.0775 3.06558 16.3679C2.54601 16.6765 2.10929 16.9613 2.01409 17.0231C1.44891 17.3894 2.304 16.8073 3.31625 16.2851C3.97271 15.9464 7.82418 13.8938 13.3206 13.9461C16.4903 13.9762 20.2714 14.7074 23.9934 16.8104C27.6955 18.9021 30.2217 21.7192 31.8345 24.293L12.6365 36.3231ZM14.908 35.7036L-2.84144 49.7837C-1.3654 51.6444 0.306765 53.3407 2.14612 54.8433L16.4794 37.2978L30.8127 19.7523C31.493 20.308 32.1114 20.9354 32.6574 21.6236L14.908 35.7036ZM16.4794 37.2978L-3.047 25.8084L-3.88539 27.2332L15.641 38.7227L35.1674 50.2121L36.0058 48.7873L16.4794 37.2978ZM15.641 38.7227L-4.06304 27.5406C-5.67172 30.3753 -7.04713 34.1936 -7.10004 38.751C-7.15344 43.3503 -5.84307 47.2945 -4.16488 50.3048C-1.26114 55.5134 2.86794 58.1436 3.82033 58.7578C4.60626 59.2646 5.28067 59.6383 5.66275 59.8448C6.02265 60.0394 6.38937 60.227 6.41045 60.2378C6.9192 60.5004 5.73723 59.9336 4.43759 59.0203L17.4644 40.4841L30.4912 21.9479C29.5181 21.264 28.6747 20.7772 28.2046 20.5146C27.7276 20.248 27.3049 20.031 27.1895 19.9714C26.5821 19.658 27.4605 20.0863 28.376 20.6766C28.9069 21.019 32.6902 23.3585 35.4122 28.241C36.9995 31.0882 38.2599 34.8605 38.2086 39.2771C38.1579 43.6518 36.8366 47.2765 35.3451 49.9047L15.641 38.7227ZM17.4644 40.4841L6.72327 60.4319C9.37549 61.86 12.926 63.1084 17.1697 63.2198C21.4953 63.3334 25.3529 62.2327 28.4665 60.6157C33.9497 57.768 36.7201 53.5359 37.4455 52.4206C37.9924 51.5799 38.3892 50.8593 38.6062 50.4543C38.7225 50.2372 38.8184 50.0519 38.8808 49.9303C38.9342 49.8262 38.9983 49.6997 39.0027 49.691C39.3048 49.0972 38.588 50.633 37.4056 52.2429L19.1453 38.8321L0.885026 25.4213C0.0455818 26.5643 -0.527429 27.5591 -0.80978 28.0652C-1.10223 28.5894 -1.33596 29.0524 -1.38608 29.1509C-1.69783 29.7639 -1.21488 28.7549 -0.53841 27.7148C-0.0680323 26.9917 2.42254 23.0834 7.58231 20.4037C10.5342 18.8706 14.2192 17.815 18.3589 17.9237C22.4168 18.0302 25.7681 19.2238 28.2056 20.5362L17.4644 40.4841ZM19.1453 38.8321L10.7418 59.8718C13.1223 60.8226 15.6088 61.4826 18.1473 61.8376L21.2846 39.4L24.4219 16.9624C25.4938 17.1122 26.5437 17.3909 27.5488 17.7924L19.1453 38.8321ZM21.2846 39.4H-1.37123V41.052H21.2846H43.9405V39.4H21.2846ZM21.2846 41.052H-1.37123C-1.37123 44.1473 -0.752107 48.0431 1.34959 51.9941C3.49304 56.0235 6.53605 58.8992 9.57471 60.7882C14.8321 64.0564 19.9163 64.2708 21.0792 64.3263C22.039 64.3722 22.8297 64.3553 23.268 64.3414C23.6804 64.3283 24.0989 64.3054 24.1179 64.3044C24.6478 64.2774 23.4056 64.3762 21.883 64.2504L23.7482 41.6715L25.6134 19.0925C23.6158 18.9275 21.8282 19.0506 21.8071 19.0517C21.0957 19.088 22.1136 19.0123 23.2412 19.0662C23.907 19.098 28.5534 19.2328 33.4973 22.3062C36.3792 24.0977 39.2965 26.8471 41.3535 30.714C43.3687 34.5023 43.9405 38.1993 43.9405 41.052H21.2846ZM23.7482 41.6715V64.3273C26.9834 64.3273 30.9543 63.6496 34.9237 61.4769C38.9364 59.2806 41.7386 56.2173 43.5542 53.2541C46.7092 48.1047 46.949 43.1589 47.0102 41.9611C47.0594 40.9998 47.0448 40.2083 47.0315 39.7596C47.019 39.3382 46.9962 38.9191 46.9958 38.9112C46.9577 38.1565 47.1131 39.9585 46.8675 42.04L24.3677 39.3855L1.86784 36.731C1.6927 38.2156 1.69431 39.4208 1.70126 39.9776C1.70869 40.5731 1.73639 41.0903 1.74164 41.1945C1.77481 41.8519 1.69807 40.8118 1.75762 39.6473C1.79434 38.929 1.95524 34.4168 4.91804 29.5813C6.63752 26.7749 9.31528 23.8385 13.1678 21.7298C16.977 19.6448 20.752 19.0156 23.7482 19.0156V41.6715ZM24.3677 39.3855L27.4921 61.8249C30.0249 61.4723 32.5062 60.8168 34.8828 59.8725L26.5173 38.8176L18.1519 17.7628C19.146 17.3678 20.1839 17.0936 21.2433 16.9461L24.3677 39.3855ZM26.5173 38.8176L6.84651 50.0581L7.67251 51.5036L27.3433 40.2631L47.0141 29.0227L46.1881 27.5772L26.5173 38.8176ZM27.3433 40.2631L8.07235 52.1761C9.81476 54.9947 12.5238 58.0234 16.4793 60.2401C20.4507 62.4657 24.4762 63.1988 27.8347 63.1959C33.6589 63.1909 37.8862 60.9668 38.8752 60.4534C39.6863 60.0322 40.3307 59.6424 40.6867 59.4224C40.8779 59.3042 41.04 59.2012 41.1462 59.1333C41.2285 59.0808 41.3577 58.9976 41.3594 58.9965C41.8116 58.7062 40.6991 59.4679 39.1977 60.1545L29.7759 39.5507L20.354 18.9469C18.4417 19.8214 16.8811 20.8656 16.8769 20.8683C16.2711 21.2573 17.0711 20.7189 17.9962 20.2386C18.5412 19.9557 22.3451 17.8889 27.7956 17.8842C30.9672 17.8815 34.8182 18.5755 38.6312 20.7123C42.4282 22.8402 44.9947 25.7303 46.6143 28.3502L27.3433 40.2631ZM29.7759 39.5507L40.7785 59.3555C43.6205 57.7766 46.8062 55.223 49.2365 51.3183C51.6959 47.3669 52.622 43.2507 52.7217 39.7352C52.8943 33.6507 50.5998 29.2127 50.0645 28.1669C49.6261 27.3102 49.2175 26.6324 48.9812 26.2502C48.759 25.891 48.5296 25.5397 48.5253 25.5331C48.091 24.8624 49.1782 26.4135 50.03 28.4176L29.1791 37.2792L8.32819 46.1409C8.93463 47.5678 9.56114 48.6468 9.84396 49.1227C10.151 49.6393 10.437 50.0778 10.4915 50.162C10.8467 50.7106 10.26 49.8491 9.72834 48.8102C9.4117 48.1915 7.26596 44.1685 7.42818 38.4502C7.52272 35.1178 8.40384 31.1726 10.7672 27.3753C13.1015 23.6248 16.1403 21.2086 18.7732 19.7459L29.7759 39.5507ZM29.1791 37.2792L43.6909 54.6774C45.3884 53.2615 46.9448 51.6846 48.3385 49.9688L30.7526 35.6851L13.1667 21.4013C13.6167 20.8473 14.1192 20.3382 14.6673 19.8811L29.1791 37.2792ZM30.7526 35.6851L21.6915 56.4501C19.8058 55.6272 18.362 54.6138 18.9641 55.0059C18.966 55.007 19.3147 55.2361 19.6667 55.4552C20.0434 55.6898 20.7141 56.097 21.562 56.5351C22.643 57.0934 26.953 59.3251 32.8816 59.2403C36.2767 59.1917 40.2554 58.3823 44.1362 56.1431C47.9877 53.9207 50.6228 50.9369 52.3226 48.1729L33.0241 36.3046L13.7256 24.4362C15.3026 21.872 17.7958 19.028 21.4905 16.8961C25.2144 14.7473 29.0214 13.9791 32.2337 13.9332C37.7968 13.8536 41.6975 15.9362 42.3571 16.2769C43.3842 16.8075 44.2427 17.3949 43.6877 17.0335C43.5971 16.9745 43.1664 16.6923 42.6565 16.3873C42.1754 16.0995 41.1548 15.5053 39.8137 14.9201L30.7526 35.6851ZM33.0241 36.3046L53.7038 45.5587C53.0151 47.0977 52.2423 48.2382 52.537 47.7736C52.5508 47.7518 52.5585 47.7398 52.5852 47.6978C52.6066 47.664 52.6374 47.6154 52.6715 47.5615C52.7384 47.4557 52.84 47.2938 52.9565 47.1032C53.1733 46.7485 53.5582 46.105 53.9737 45.2962C54.4605 44.3486 56.7081 40.0611 56.6706 34.1713C56.6489 30.751 55.8572 26.6225 53.482 22.5796C51.1191 18.5578 47.9316 15.8843 45.0327 14.2152L33.7283 33.8493L22.4238 53.4834C19.7293 51.932 16.6847 49.3977 14.4139 45.5326C12.1307 41.6464 11.3803 37.692 11.3598 34.4595C11.3247 28.9451 13.4144 25.0871 13.6692 24.5912C14.1371 23.6804 14.6645 22.8867 14.2731 23.5037C14.1921 23.6315 13.9268 24.0483 13.6364 24.5449C13.3525 25.0304 12.8522 25.9157 12.3444 27.0504L33.0241 36.3046ZM33.7283 33.8493L44.9687 14.1785L43.5232 13.3525L32.2828 33.0233L21.0423 52.6941L22.4878 53.5201L33.7283 33.8493ZM32.2828 33.0233L53.4287 41.1559C54.2796 38.9432 54.8903 36.6455 55.2502 34.3023L32.8568 30.8633L10.4635 27.4243C10.5965 26.5581 10.8223 25.7087 11.1369 24.8907L32.2828 33.0233ZM32.8568 30.8633L35.4122 53.3746C33.4411 53.5984 31.7626 53.46 32.4364 53.4926C32.4435 53.493 32.585 53.5 32.6947 53.505C32.826 53.5109 33.0258 53.5194 33.2614 53.5262C33.7006 53.5388 34.4862 53.5529 35.4413 53.5038C36.6203 53.4432 41.5874 53.2064 46.7516 50.0296C49.727 48.1993 52.7827 45.3831 54.9654 41.3694C57.1204 37.4064 57.7842 33.4553 57.7842 30.2541H35.1283H12.4724C12.4724 27.2874 13.0891 23.5283 15.1588 19.7225C17.256 15.8658 20.188 13.1717 23.0101 11.4356C27.8677 8.44742 32.4102 8.28802 33.1169 8.25172C34.2687 8.19256 35.3117 8.26709 34.6318 8.23411C34.5162 8.22851 34.0063 8.2024 33.4151 8.1961C32.8516 8.1901 31.7072 8.19244 30.3015 8.35201L32.8568 30.8633ZM35.1283 30.2541L57.7375 28.8007C57.8323 30.2752 57.7204 31.5427 57.7613 30.86C57.7659 30.7827 57.7917 30.3712 57.8081 29.922C57.8248 29.4604 57.8437 28.6774 57.8029 27.7314C57.7527 26.5676 57.5614 21.7295 54.5816 16.6333C52.8626 13.6935 50.1438 10.5456 46.1309 8.23766C42.1359 5.94001 38.0835 5.17932 34.7402 5.15006L34.5419 27.8051L34.3436 50.4601C31.2361 50.4329 27.3773 49.7232 23.5405 47.5165C19.6859 45.2996 17.0901 42.2828 15.466 39.5052C12.6758 34.7335 12.5617 30.3445 12.5332 29.6835C12.4841 28.5436 12.5643 27.587 12.5305 28.1535C12.5256 28.2351 12.4978 28.676 12.482 29.1612C12.4664 29.6386 12.4459 30.5692 12.5191 31.7076L35.1283 30.2541Z" fill="#2C2C2C" mask="url(#path-4-inside-1_272_323)"/>
<path d="M26.8105 33.3291C25.7573 34.3823 24.3293 34.9746 22.8398 34.9746C21.3503 34.9746 19.9214 34.3823 18.8682 33.3291C17.8809 32.3417 17.2993 31.0247 17.2305 29.6367L17.2236 29.3584C17.2236 27.8689 17.8149 26.44 18.8682 25.3867C19.9214 24.3335 21.3503 23.7422 22.8398 23.7422L23.1182 23.749C24.5061 23.8179 25.8232 24.3995 26.8105 25.3867C27.798 26.3742 28.3804 27.6918 28.4492 29.0801L28.4561 29.3584L28.4492 29.6367C28.3804 31.0248 27.798 32.3417 26.8105 33.3291Z" fill="#2C2C2C" stroke="#2C2C2C" stroke-width="22.6559"/>
<mask id="path-7-inside-2_272_323" fill="white">
<path d="M52.2578 49.8739C53.357 47.9974 53.7695 45.797 53.4248 43.6497C53.0801 41.5024 51.9996 39.5418 50.3683 38.1035L44.1279 45.1513L52.2578 49.8739Z"/>
</mask>
<path d="M52.2578 49.8739C53.357 47.9974 53.7695 45.797 53.4248 43.6497C53.0801 41.5024 51.9996 39.5418 50.3683 38.1035L44.1279 45.1513L52.2578 49.8739Z" fill="#006D34"/>
<path d="M52.2578 49.8739L40.8778 69.4643L60.3976 80.8034L71.807 61.3246L52.2578 49.8739ZM50.3683 38.1035L65.3514 21.1095L48.3934 6.15809L33.4061 23.0845L50.3683 38.1035ZM44.1279 45.1513L27.1657 30.1323L8.82563 50.8453L32.7479 64.7417L44.1279 45.1513ZM52.2578 49.8739L71.807 61.3246C75.5624 54.913 76.972 47.3953 75.7943 40.0588L53.4248 43.6497L31.0553 47.2406C30.567 44.1987 31.1515 41.0817 32.7086 38.4233L52.2578 49.8739ZM53.4248 43.6497L75.7943 40.0588C74.6166 32.7224 70.9249 26.0235 65.3514 21.1095L50.3683 38.1035L35.3852 55.0975C33.0743 53.06 31.5436 50.2825 31.0553 47.2406L53.4248 43.6497ZM50.3683 38.1035L33.4061 23.0845L27.1657 30.1323L44.1279 45.1513L61.0902 60.1703L67.3306 53.1225L50.3683 38.1035ZM44.1279 45.1513L32.7479 64.7417L40.8778 69.4643L52.2578 49.8739L63.6378 30.2836L55.508 25.5609L44.1279 45.1513Z" fill="#2C2C2C" mask="url(#path-7-inside-2_272_323)"/>
<mask id="path-9-inside-3_272_323" fill="white">
<path d="M50.3683 38.1051C48.6486 36.5773 46.4283 35.7331 44.1279 35.7324V45.1529L50.3683 38.1051Z"/>
</mask>
<path d="M50.3683 38.1051C48.6486 36.5773 46.4283 35.7331 44.1279 35.7324V45.1529L50.3683 38.1051Z" fill="#FFBE02"/>
<path d="M50.3683 38.1051L67.3306 53.1241L82.3245 36.1901L65.4156 21.1679L50.3683 38.1051ZM44.1279 35.7324L44.1344 13.0766L21.4721 13.0701V35.7324H44.1279ZM44.1279 45.1529H21.4721V104.916L61.0902 60.1719L44.1279 45.1529ZM50.3683 38.1051L65.4156 21.1679C59.5509 15.9576 51.9792 13.0788 44.1344 13.0766L44.1279 35.7324L44.1215 58.3883C40.8774 58.3874 37.7463 57.1969 35.321 55.0422L50.3683 38.1051ZM44.1279 35.7324H21.4721V45.1529H44.1279H66.7838V35.7324H44.1279ZM44.1279 45.1529L61.0902 60.1719L67.3306 53.1241L50.3683 38.1051L33.4061 23.0861L27.1657 30.1339L44.1279 45.1529Z" fill="#2C2C2C" mask="url(#path-9-inside-3_272_323)"/>
<mask id="path-11-inside-4_272_323" fill="white">
<path d="M44.1278 45.1543L38.9653 53.0219C40.0367 53.7154 41.2374 54.1848 42.4951 54.402C43.7527 54.6191 45.0413 54.5795 46.2832 54.2855C47.5251 53.9914 48.6947 53.4491 49.7214 52.6911C50.7482 51.9331 51.6109 50.9751 52.2577 49.8749L44.1278 45.1543Z"/>
</mask>
<path d="M44.1278 45.1543L38.9653 53.0219C40.0367 53.7154 41.2374 54.1848 42.4951 54.402C43.7527 54.6191 45.0413 54.5795 46.2832 54.2855C47.5251 53.9914 48.6947 53.4491 49.7214 52.6911C50.7482 51.9331 51.6109 50.9751 52.2577 49.8749L44.1278 45.1543Z" fill="#9B1FF1"/>
<path d="M44.1278 45.1543L55.5041 25.5617L36.9538 14.7906L25.1857 32.7251L44.1278 45.1543ZM38.9653 53.0219L20.0232 40.5927L7.51596 59.6538L26.655 72.0415L38.9653 53.0219ZM52.2577 49.8749L71.7892 61.3556L83.3314 41.7195L63.634 30.2823L52.2577 49.8749ZM44.1278 45.1543L25.1857 32.7251L20.0232 40.5927L38.9653 53.0219L57.9074 65.4511L63.0699 57.5835L44.1278 45.1543ZM38.9653 53.0219L26.655 72.0415C30.2929 74.3961 34.3698 75.9901 38.6402 76.7275L42.4951 54.402L46.3499 32.0765C48.105 32.3795 49.7806 33.0346 51.2757 34.0024L38.9653 53.0219ZM42.4951 54.402L38.6402 76.7275C42.9105 77.4648 47.2859 77.3302 51.5028 76.3319L46.2832 54.2855L41.0636 32.239C42.7966 31.8287 44.5949 31.7734 46.3499 32.0765L42.4951 54.402ZM46.2832 54.2855L51.5028 76.3319C55.7197 75.3335 59.691 73.4919 63.1774 70.9181L49.7214 52.6911L36.2655 34.464C37.6983 33.4062 39.3305 32.6494 41.0636 32.239L46.2832 54.2855ZM49.7214 52.6911L63.1774 70.9181C66.6638 68.3443 69.5932 65.0915 71.7892 61.3556L52.2577 49.8749L32.7261 38.3941C33.6287 36.8587 34.8326 35.5218 36.2655 34.464L49.7214 52.6911ZM52.2577 49.8749L63.634 30.2823L55.5041 25.5617L44.1278 45.1543L32.7515 64.7468L40.8813 69.4674L52.2577 49.8749Z" fill="#2C2C2C" mask="url(#path-11-inside-4_272_323)"/>
<mask id="path-13-inside-5_272_323" fill="white">
<path d="M44.1279 35.7324C42.111 35.7524 40.1536 36.4175 38.5421 37.6305C36.9307 38.8435 35.75 40.5406 35.1729 42.4732C34.5958 44.4058 34.6526 46.4724 35.3351 48.3704C36.0175 50.2683 37.2897 51.8979 38.9654 53.0205L44.1279 45.1529V35.7324Z"/>
</mask>
<path d="M44.1279 35.7324C42.111 35.7524 40.1536 36.4175 38.5421 37.6305C36.9307 38.8435 35.75 40.5406 35.1729 42.4732C34.5958 44.4058 34.6526 46.4724 35.3351 48.3704C36.0175 50.2683 37.2897 51.8979 38.9654 53.0205L44.1279 45.1529V35.7324Z" fill="#FD5001"/>
<path d="M44.1279 35.7324H66.7837V12.8513L43.9037 13.0777L44.1279 35.7324ZM38.9654 53.0205L26.3556 71.8429L45.3588 84.5738L57.9075 65.4497L38.9654 53.0205ZM44.1279 45.1529L63.07 57.5821L66.7837 51.9223V45.1529H44.1279ZM44.1279 35.7324L43.9037 13.0777C37.0482 13.1455 30.3944 15.4065 24.9169 19.5297L38.5421 37.6305L52.1674 55.7314C49.9127 57.4286 47.1739 58.3593 44.352 58.3872L44.1279 35.7324ZM38.5421 37.6305L24.9169 19.5297C19.4394 23.6528 15.4259 29.4214 13.4642 35.9907L35.1729 42.4732L56.8815 48.9557C56.0741 51.6598 54.422 54.0342 52.1674 55.7314L38.5421 37.6305ZM35.1729 42.4732L13.4642 35.9907C11.5026 42.5599 11.6958 49.5847 14.0155 56.0362L35.3351 48.3704L56.6546 40.7045C57.6095 43.3601 57.689 46.2516 56.8815 48.9557L35.1729 42.4732ZM35.3351 48.3704L14.0155 56.0362C16.3353 62.4877 20.6598 68.027 26.3556 71.8429L38.9654 53.0205L51.5752 34.1981C53.9197 35.7688 55.6997 38.0489 56.6546 40.7045L35.3351 48.3704ZM38.9654 53.0205L57.9075 65.4497L63.07 57.5821L44.1279 45.1529L25.1858 32.7237L20.0233 40.5913L38.9654 53.0205ZM44.1279 45.1529H66.7837V35.7324H44.1279H21.472V45.1529H44.1279Z" fill="#2C2C2C" mask="url(#path-13-inside-5_272_323)"/>
<path d="M44.1274 48.8027C43.2198 48.8027 42.3469 48.4648 41.6772 47.8584L41.5464 47.7334C40.8618 47.0488 40.4771 46.1205 40.4771 45.1523C40.4771 44.2447 40.815 43.3718 41.4214 42.7021L41.5464 42.5713C42.231 41.8867 43.1593 41.502 44.1274 41.502C45.0956 41.502 46.0239 41.8867 46.7085 42.5713C47.3931 43.2559 47.7778 44.1842 47.7778 45.1523C47.7778 46.1205 47.3931 47.0488 46.7085 47.7334C46.0239 48.418 45.0956 48.8027 44.1274 48.8027Z" fill="#D9E1FE" stroke="#2C2C2C" stroke-width="22.6559"/>
<mask id="path-16-inside-6_272_323" fill="white">
<path d="M39.5559 23.3379H53.5462V24.7854H39.5559V23.3379ZM46.0689 27.5112H53.5462V28.9588H46.0689V27.5112ZM39.5559 27.5112H44.1402V28.9588H39.5559V27.5112ZM39.5559 31.666H50.6532V33.1342H39.5559V31.666Z"/>
</mask>
<path d="M39.5559 23.3379H53.5462V24.7854H39.5559V23.3379ZM46.0689 27.5112H53.5462V28.9588H46.0689V27.5112ZM39.5559 27.5112H44.1402V28.9588H39.5559V27.5112ZM39.5559 31.666H50.6532V33.1342H39.5559V31.666Z" fill="#22217F"/>
<path d="M39.5559 23.3379V0.68202H16.9V23.3379H39.5559ZM53.5462 23.3379H76.2021V0.68202H53.5462V23.3379ZM53.5462 24.7854V47.4413H76.2021V24.7854H53.5462ZM39.5559 24.7854H16.9V47.4413H39.5559V24.7854ZM46.0689 27.5112V4.85536H23.413V27.5112H46.0689ZM53.5462 27.5112H76.2021V4.85536H53.5462V27.5112ZM53.5462 28.9588V51.6147H76.2021V28.9588H53.5462ZM46.0689 28.9588H23.413V51.6147H46.0689V28.9588ZM39.5559 27.5112V4.85536H16.9V27.5112H39.5559ZM44.1402 27.5112H66.7961V4.85536H44.1402V27.5112ZM44.1402 28.9588V51.6147H66.7961V28.9588H44.1402ZM39.5559 28.9588H16.9V51.6147H39.5559V28.9588ZM39.5559 31.666V9.01012H16.9V31.666H39.5559ZM50.6532 31.666H73.309V9.01012H50.6532V31.666ZM50.6532 33.1342V55.7901H73.309V33.1342H50.6532ZM39.5559 33.1342H16.9V55.7901H39.5559V33.1342ZM39.5559 23.3379V45.9938H53.5462V23.3379V0.68202H39.5559V23.3379ZM53.5462 23.3379H30.8903V24.7854H53.5462H76.2021V23.3379H53.5462ZM53.5462 24.7854V2.12958H39.5559V24.7854V47.4413H53.5462V24.7854ZM39.5559 24.7854H62.2118V23.3379H39.5559H16.9V24.7854H39.5559ZM46.0689 27.5112V50.1671H53.5462V27.5112V4.85536H46.0689V27.5112ZM53.5462 27.5112H30.8903V28.9588H53.5462H76.2021V27.5112H53.5462ZM53.5462 28.9588V6.30292H46.0689V28.9588V51.6147H53.5462V28.9588ZM46.0689 28.9588H68.7248V27.5112H46.0689H23.413V28.9588H46.0689ZM39.5559 27.5112V50.1671H44.1402V27.5112V4.85536H39.5559V27.5112ZM44.1402 27.5112H21.4843V28.9588H44.1402H66.7961V27.5112H44.1402ZM44.1402 28.9588V6.30292H39.5559V28.9588V51.6147H44.1402V28.9588ZM39.5559 28.9588H62.2118V27.5112H39.5559H16.9V28.9588H39.5559ZM39.5559 31.666V54.3219H50.6532V31.666V9.01012H39.5559V31.666ZM50.6532 31.666H27.9973V33.1342H50.6532H73.309V31.666H50.6532ZM50.6532 33.1342V10.4783H39.5559V33.1342V55.7901H50.6532V33.1342ZM39.5559 33.1342H62.2118V31.666H39.5559H16.9V33.1342H39.5559Z" fill="#2C2C2C" mask="url(#path-16-inside-6_272_323)"/>
</svg>
