<svg width="70" height="70" viewBox="0 0 70 70" fill="none" xmlns="http://www.w3.org/2000/svg">
<path d="M16 0.5H54C57.7854 0.5 60.5745 0.500713 62.7119 0.788086C64.8348 1.07354 66.2406 1.63315 67.3037 2.69629C68.3668 3.75943 68.9265 5.16519 69.2119 7.28809C69.4993 9.42554 69.5 12.2146 69.5 16V54C69.5 57.7854 69.4993 60.5745 69.2119 62.7119C68.9265 64.8348 68.3668 66.2406 67.3037 67.3037C66.2406 68.3668 64.8348 68.9265 62.7119 69.2119C60.5745 69.4993 57.7854 69.5 54 69.5H16C12.2146 69.5 9.42554 69.4993 7.28809 69.2119C5.16519 68.9265 3.75943 68.3668 2.69629 67.3037C1.63315 66.2406 1.07354 64.8348 0.788086 62.7119C0.500713 60.5745 0.5 57.7854 0.5 54V16C0.5 12.2146 0.500713 9.42554 0.788086 7.28809C1.07354 5.16519 1.63315 3.75943 2.69629 2.69629C3.75943 1.63315 5.16519 1.07354 7.28809 0.788086C9.42554 0.500713 12.2146 0.5 16 0.5Z" fill="#2C2C2C" stroke="#2C2C2C"/>
<path d="M24.8728 12.166H51.7185L52.6072 20.666C52.6061 20.8372 52.5911 20.891 52.5652 20.9365C52.5323 20.9941 52.4408 21.105 52.1443 21.2852C51.4685 21.6955 50.8706 22.0533 50.4724 22.5703C50.0486 23.1207 49.8855 23.794 49.8855 24.75V48.4736C49.8854 48.9721 49.4748 49.3818 48.9763 49.3818L23.9646 48.4609V13.0742C23.9647 12.5727 24.3713 12.1662 24.8728 12.166Z" fill="#FD5001" stroke="#2C2C2C"/>
<path d="M52.6687 12.167C53.1534 12.1831 53.5474 12.5859 53.5476 13.0742V20.1777C53.5476 20.7238 53.3702 21.0824 53.1384 21.3506C52.8914 21.6363 52.5712 21.8348 52.238 22.0371C51.8758 22.2571 51.5078 22.5438 51.238 22.9941C50.9682 23.4448 50.824 24.0122 50.824 24.75V49.4121C50.824 49.9106 50.4142 50.3212 49.9158 50.3213H24.8728C24.3712 50.3211 23.9646 49.9137 23.9646 49.4121V17.7998H48.0378C48.5393 17.7999 48.9459 18.2065 48.946 18.708V22.9199L49.6677 22.5654V22.5645L49.6697 22.5635C49.6714 22.5626 49.6746 22.562 49.6775 22.5605C49.6833 22.5576 49.6913 22.5532 49.7019 22.5479C49.7234 22.5369 49.755 22.5208 49.7966 22.499C49.8799 22.4554 50.0039 22.3887 50.1716 22.2959C50.5073 22.1101 51.018 21.8186 51.7244 21.3896C52.0782 21.1748 52.3392 20.955 52.4958 20.6797C52.6583 20.3941 52.6687 20.1145 52.6687 19.8965V12.167Z" fill="#FD5001" stroke="#2C2C2C"/>
<path d="M21.1167 15.9219H45.1079L46.022 53.1191L20.2085 52.2158V16.8301C20.2086 16.3285 20.6152 15.922 21.1167 15.9219Z" fill="#FFE07D" stroke="#2C2C2C"/>
<path d="M46.0962 15.9229C46.5836 15.939 46.9739 16.3387 46.9741 16.8301V53.168C46.9741 53.6696 46.5675 54.077 46.0659 54.0771H21.1167C20.6254 54.077 20.2267 53.6865 20.2104 53.1992H44.8921C45.2114 53.1991 45.5179 53.0715 45.7437 52.8457C45.9691 52.62 46.0961 52.3141 46.0962 51.9951V15.9229Z" fill="#FFD064" stroke="#2C2C2C"/>
<path d="M17.3613 19.6777H41.3525L42.2666 56.875L16.4531 55.9717V20.5859C16.4533 20.0844 16.8598 19.6779 17.3613 19.6777Z" fill="#F8FDFF" stroke="#2C2C2C"/>
<path d="M42.3408 19.6787C42.8283 19.6949 43.2186 20.0946 43.2188 20.5859V56.9238C43.2188 57.4255 42.8121 57.8328 42.3105 57.833H17.3613C16.87 57.8329 16.4714 57.4424 16.4551 56.9551H41.1367C41.456 56.955 41.7625 56.8273 41.9883 56.6016C42.2138 56.3759 42.3407 56.07 42.3408 55.751V19.6787Z" fill="#E4F6FF" stroke="#2C2C2C"/>
<path d="M25.3425 52.6357H39.4929C39.547 52.6357 39.5992 52.6572 39.6375 52.6953C39.6757 52.7336 39.697 52.7858 39.697 52.8398C39.697 52.894 39.6757 52.9461 39.6375 52.9844C39.5992 53.0227 39.5471 53.0439 39.4929 53.0439H25.3425C25.2297 53.0439 25.1384 52.9526 25.1384 52.8398C25.1385 52.7272 25.2298 52.6358 25.3425 52.6357ZM25.3425 49.8193H39.4929C39.5471 49.8193 39.5992 49.8406 39.6375 49.8789C39.6757 49.9172 39.697 49.9693 39.697 50.0234C39.6969 50.0775 39.6757 50.1297 39.6375 50.168C39.5992 50.2061 39.5469 50.2275 39.4929 50.2275H25.3425C25.2299 50.2275 25.1386 50.1361 25.1384 50.0234C25.1384 49.9106 25.2297 49.8194 25.3425 49.8193ZM25.3425 44.1855H39.4929C39.5471 44.1855 39.5992 44.2068 39.6375 44.2451C39.6757 44.2834 39.697 44.3355 39.697 44.3896C39.6969 44.4436 39.6756 44.495 39.6375 44.5332C39.5992 44.5715 39.5471 44.5938 39.4929 44.5938H25.3425C25.2299 44.5937 25.1386 44.5023 25.1384 44.3896C25.1384 44.2769 25.2297 44.1856 25.3425 44.1855ZM25.3425 41.3682H39.4929C39.547 41.3682 39.5992 41.3896 39.6375 41.4277C39.6757 41.466 39.697 41.5182 39.697 41.5723C39.697 41.6264 39.6757 41.6785 39.6375 41.7168C39.5992 41.7551 39.5471 41.7764 39.4929 41.7764H25.3425C25.2297 41.7763 25.1384 41.6851 25.1384 41.5723C25.1385 41.4596 25.2298 41.3682 25.3425 41.3682ZM25.3425 35.7344H39.4929C39.547 35.7344 39.5992 35.7558 39.6375 35.7939C39.6757 35.8322 39.697 35.8844 39.697 35.9385C39.697 35.9926 39.6757 36.0447 39.6375 36.083C39.5992 36.1213 39.547 36.1426 39.4929 36.1426H25.3425C25.2297 36.1425 25.1384 36.0513 25.1384 35.9385C25.1385 35.8258 25.2298 35.7344 25.3425 35.7344ZM25.3425 32.918H39.4929C39.5471 32.918 39.5992 32.9392 39.6375 32.9775C39.6757 33.0158 39.697 33.0679 39.697 33.1221C39.6969 33.1761 39.6757 33.2284 39.6375 33.2666C39.5992 33.3047 39.5469 33.3262 39.4929 33.3262H25.3425C25.2298 33.3261 25.1386 33.2347 25.1384 33.1221C25.1384 33.0093 25.2297 32.918 25.3425 32.918ZM25.3425 27.2842H39.4929C39.5471 27.2842 39.5992 27.3055 39.6375 27.3438C39.6757 27.382 39.697 27.4341 39.697 27.4883C39.6969 27.5423 39.6757 27.5946 39.6375 27.6328C39.5992 27.6709 39.5469 27.6924 39.4929 27.6924H25.3425C25.2299 27.6923 25.1386 27.6009 25.1384 27.4883C25.1384 27.3755 25.2297 27.2842 25.3425 27.2842ZM25.3425 24.4668H39.4929C39.547 24.4668 39.5992 24.4882 39.6375 24.5264C39.6757 24.5646 39.697 24.6168 39.697 24.6709C39.697 24.7251 39.6757 24.7771 39.6375 24.8154C39.5992 24.8537 39.547 24.875 39.4929 24.875H25.3425C25.2297 24.875 25.1384 24.7837 25.1384 24.6709C25.1385 24.5722 25.2084 24.4897 25.3015 24.4707L25.3425 24.4668Z" fill="#909BA6" stroke="#2C2C2C"/>
<path d="M21.1167 25.1719C21.6183 25.1719 22.0257 25.5785 22.0259 26.0801C22.0259 26.5818 21.6184 26.9893 21.1167 26.9893C20.6151 26.9891 20.2085 26.5817 20.2085 26.0801C20.2086 25.5786 20.6152 25.172 21.1167 25.1719Z" fill="#22217F" stroke="#2C2C2C"/>
<path d="M21.1167 33.6211C21.6183 33.6211 22.0257 34.0277 22.0259 34.5293C22.0259 35.031 21.6184 35.4385 21.1167 35.4385C20.6151 35.4383 20.2085 35.0309 20.2085 34.5293C20.2086 34.0278 20.6152 33.6212 21.1167 33.6211Z" fill="#22217F" stroke="#2C2C2C"/>
<path d="M21.1167 42.0723C21.6183 42.0723 22.0257 42.4789 22.0259 42.9805C22.0259 43.4822 21.6184 43.8896 21.1167 43.8896C20.6151 43.8895 20.2085 43.4821 20.2085 42.9805C20.2086 42.4789 20.6152 42.0724 21.1167 42.0723Z" fill="#22217F" stroke="#2C2C2C"/>
<path d="M21.1167 50.5234C21.6183 50.5234 22.0257 50.93 22.0259 51.4316C22.0259 51.9334 21.6184 52.3408 21.1167 52.3408C20.6151 52.3407 20.2085 51.9333 20.2085 51.4316C20.2086 50.9301 20.6152 50.5236 21.1167 50.5234Z" fill="#22217F" stroke="#2C2C2C"/>
</svg>
