<svg width="70" height="70" viewBox="0 0 70 70" fill="none" xmlns="http://www.w3.org/2000/svg">
<path d="M16 0.5H54C57.7854 0.5 60.5745 0.500713 62.7119 0.788086C64.8348 1.07354 66.2406 1.63315 67.3037 2.69629C68.3668 3.75943 68.9265 5.16519 69.2119 7.28809C69.4993 9.42554 69.5 12.2146 69.5 16V54C69.5 57.7854 69.4993 60.5745 69.2119 62.7119C68.9265 64.8348 68.3668 66.2406 67.3037 67.3037C66.2406 68.3668 64.8348 68.9265 62.7119 69.2119C60.5745 69.4993 57.7854 69.5 54 69.5H16C12.2146 69.5 9.42554 69.4993 7.28809 69.2119C5.16519 68.9265 3.75943 68.3668 2.69629 67.3037C1.63315 66.2406 1.07354 64.8348 0.788086 62.7119C0.500713 60.5745 0.5 57.7854 0.5 54V16C0.5 12.2146 0.500713 9.42554 0.788086 7.28809C1.07354 5.16519 1.63315 3.75943 2.69629 2.69629C3.75943 1.63315 5.16519 1.07354 7.28809 0.788086C9.42554 0.500713 12.2146 0.5 16 0.5Z" fill="#2C2C2C" stroke="#2C2C2C"/>
<path d="M33.8726 12.166H20.9556C18.6707 12.166 16.811 14.0257 16.811 16.3105V19.4072C16.8112 19.9859 17.2803 20.4549 17.8589 20.4551H30.7759C31.2536 20.4551 31.7083 20.6184 32.0728 20.918L32.2231 21.0547L50.4917 39.3223C50.6355 39.4652 50.7576 39.6287 50.853 39.8076L50.854 39.8096C50.9431 39.9776 51.0759 40.1186 51.2388 40.2168C51.402 40.315 51.5893 40.3672 51.7798 40.3672C52.0555 40.3672 52.3229 40.2576 52.521 40.0596L55.0718 37.5098V37.5088C55.8549 36.7261 56.2856 35.6872 56.2856 34.5791C56.2856 33.471 55.8555 32.4311 55.0718 31.6475L36.8032 13.3799H36.8022C36.0207 12.597 34.9815 12.166 33.8726 12.166Z" fill="#FFBE02" stroke="#2C2C2C"/>
<path d="M30.7761 18.3594H17.8591C15.5743 18.3594 13.7146 20.219 13.7146 22.5039V35.4209C13.7146 36.5284 14.1447 37.5679 14.9285 38.3516L33.197 56.6201C33.98 57.4032 35.0196 57.833 36.1277 57.833C37.2356 57.8329 38.2744 57.4031 39.0574 56.6201L51.9753 43.7021C53.2731 42.4054 53.5659 40.4483 52.7048 38.8271C52.512 38.4642 52.2663 38.132 51.9753 37.8418L51.9744 37.8408L33.7058 19.5732C32.9243 18.7903 31.8852 18.3594 30.7761 18.3594Z" fill="#FD5001" stroke="#2C2C2C"/>
<path d="M14.5981 19.9492C14.0446 20.6541 13.7145 21.5405 13.7144 22.5029V35.4209C13.7145 36.5281 14.1447 37.5671 14.9282 38.3506L33.1968 56.6191C33.9799 57.4023 35.0194 57.833 36.1274 57.833C37.2354 57.833 38.2741 57.4022 39.0571 56.6191L45.1626 50.5137L14.5981 19.9492Z" fill="#FE1300" stroke="#2C2C2C"/>
<path d="M24.0515 24.5527C21.7666 24.5527 19.907 26.4124 19.907 28.6973C19.907 30.9821 21.7666 32.8418 24.0515 32.8418C26.3364 32.8418 28.196 30.9821 28.196 28.6973C28.196 26.4124 26.3364 24.5527 24.0515 24.5527Z" fill="#2C2C2C" stroke="#2C2C2C"/>
<path d="M20.7917 26.1426C20.2382 26.8474 19.908 27.7337 19.908 28.6963C19.908 30.9812 21.7676 32.8408 24.0525 32.8408C25.0151 32.8407 25.9013 32.5105 26.6062 31.957L20.7917 26.1426Z" fill="#2C2C2C" stroke="#2C2C2C"/>
</svg>
