<svg width="70" height="70" viewBox="0 0 70 70" fill="none" xmlns="http://www.w3.org/2000/svg">
<path d="M16 0.5H54C57.7854 0.5 60.5745 0.500713 62.7119 0.788086C64.8348 1.07354 66.2406 1.63315 67.3037 2.69629C68.3668 3.75943 68.9265 5.16519 69.2119 7.28809C69.4993 9.42554 69.5 12.2146 69.5 16V54C69.5 57.7854 69.4993 60.5745 69.2119 62.7119C68.9265 64.8348 68.3668 66.2406 67.3037 67.3037C66.2406 68.3668 64.8348 68.9265 62.7119 69.2119C60.5745 69.4993 57.7854 69.5 54 69.5H16C12.2146 69.5 9.42554 69.4993 7.28809 69.2119C5.16519 68.9265 3.75943 68.3668 2.69629 67.3037C1.63315 66.2406 1.07354 64.8348 0.788086 62.7119C0.500713 60.5745 0.5 57.7854 0.5 54V16C0.5 12.2146 0.500713 9.42554 0.788086 7.28809C1.07354 5.16519 1.63315 3.75943 2.69629 2.69629C3.75943 1.63315 5.16519 1.07354 7.28809 0.788086C9.42554 0.500713 12.2146 0.5 16 0.5Z" fill="#2C2C2C" stroke="#2C2C2C"/>
<path d="M37.0554 12.3516C35.0099 20.5299 36.4394 25.9956 39.1267 28.332C40.5329 29.5546 42.2685 29.8921 43.9177 29.2705C45.358 28.7276 46.6731 27.4762 47.6521 25.5732C50.3426 29.5076 50.6498 33.1414 50.2693 35.8311C50.0672 37.2591 49.6703 38.4267 49.325 39.2354C49.1524 39.6394 48.9934 39.953 48.8787 40.1631C48.8213 40.2681 48.7749 40.3477 48.7439 40.3994C48.7285 40.425 48.7171 40.4442 48.7097 40.4561C48.7063 40.4616 48.7034 40.4654 48.7019 40.4678L48.7009 40.4697L48.2732 41.126L49.0476 41.2383C50.5704 41.4577 51.9265 40.7331 52.8533 40.0273C53.1037 39.8367 53.3277 39.6417 53.5232 39.46C53.4412 49.6209 45.1802 57.833 34.9998 57.833C24.7684 57.8329 16.4744 49.538 16.4744 39.3066C16.4744 38.018 16.6076 36.7608 16.8582 35.5469C17.0716 35.7958 17.3364 36.0907 17.655 36.416C18.6235 37.4048 20.0843 38.684 22.0603 39.8564L22.9314 40.373L22.8123 39.3672V39.3652C22.812 39.3629 22.8109 39.3587 22.8103 39.3535C22.8091 39.3432 22.8077 39.327 22.8054 39.3057C22.8009 39.263 22.7946 39.1987 22.7869 39.1143C22.7712 38.9446 22.7503 38.6932 22.7302 38.3711C22.69 37.7267 22.6517 36.7988 22.6628 35.6719C22.6851 33.4154 22.9035 30.3708 23.6814 27.2061C25.1893 21.0714 28.7727 14.564 37.0554 12.3516Z" fill="#FD5001" stroke="#2C2C2C"/>
<path d="M37.0557 12.3535C35.0107 20.5309 36.4398 25.9958 39.127 28.332C40.5332 29.5546 42.2687 29.8921 43.918 29.2705C45.3583 28.7276 46.6734 27.4762 47.6523 25.5732C50.3428 29.5076 50.6501 33.1414 50.2695 35.8311C50.0675 37.2591 49.6706 38.4267 49.3252 39.2354C49.1526 39.6393 48.9936 39.953 48.8789 40.1631C48.8216 40.2681 48.7752 40.3477 48.7441 40.3994C48.7288 40.425 48.7174 40.4442 48.71 40.4561C48.7065 40.4616 48.7037 40.4654 48.7021 40.4678L48.7002 40.4697L48.2725 41.126L49.0479 41.2383C50.5706 41.4577 51.9267 40.7331 52.8535 40.0273C53.1039 39.8366 53.328 39.6417 53.5234 39.46C53.4426 49.4541 45.4496 57.5616 35.5 57.8252V12.8398C35.999 12.6612 36.5167 12.4976 37.0557 12.3535Z" fill="#FE1300" stroke="#2C2C2C"/>
<path d="M35.2803 37.4141C34.0934 39.7624 34.4279 42.3162 35.4785 43.9531C36.0823 44.8936 36.9657 45.5924 37.9951 45.6953C38.9102 45.7868 39.8186 45.3964 40.6152 44.5156C41.9939 45.9295 42.8438 47.8592 42.8438 49.9893C42.8437 54.3212 39.332 57.833 35 57.833C30.6681 57.833 27.1563 54.3212 27.1562 49.9893C27.1562 44.087 29.5019 40.9021 31.7949 39.1787C32.9515 38.3095 34.1097 37.802 34.9785 37.5117C35.0837 37.4766 35.1843 37.443 35.2803 37.4141Z" fill="#FFBE02" stroke="#2C2C2C"/>
<path d="M35.5 43.9854C36.1032 44.9094 36.9775 45.5936 37.9951 45.6953C38.9103 45.7868 39.8186 45.3964 40.6152 44.5156C41.9938 45.9295 42.8438 47.8593 42.8438 49.9893C42.8437 54.1532 39.599 57.5575 35.5 57.8154V43.9854Z" fill="#FFBE02" stroke="#2C2C2C"/>
</svg>
